<?xml version="1.0" encoding="UTF-8" standalone="no"?>
<svg
   xmlns:dc="http://purl.org/dc/elements/1.1/"
   xmlns:cc="http://creativecommons.org/ns#"
   xmlns:rdf="http://www.w3.org/1999/02/22-rdf-syntax-ns#"
   xmlns:svg="http://www.w3.org/2000/svg"
   xmlns="http://www.w3.org/2000/svg"
   version="1.1"
   id="svg2"
   xml:space="preserve"
   width="793.70081"
   height="1122.5197"
   viewBox="0 0 793.70081 1122.5197"><metadata
     id="metadata8"><rdf:RDF><cc:Work
         rdf:about=""><dc:format>image/svg+xml</dc:format><dc:type
           rdf:resource="http://purl.org/dc/dcmitype/StillImage" /><dc:title></dc:title></cc:Work></rdf:RDF></metadata><defs
     id="defs6"><clipPath
       clipPathUnits="userSpaceOnUse"
       id="clipPath18"><path
         d="M 0,0.028 H 595.247 V 841.889 H 0 Z"
         clip-rule="evenodd"
         id="path16" /></clipPath></defs><g
     id="g10"
     transform="matrix(1.3333333,0,0,-1.3333333,0,1122.5197)"><g
       id="g12"
       transform="translate(17.456627,23.849552)"><g
         id="g14"
         clip-path="url(#clipPath18)"><path
           d="M 0,841.889 H 595.247 V 0.028 H 0 Z"
           style="fill:#ffffff;fill-opacity:1;fill-rule:evenodd;stroke:none"
           id="path20" /><path
           d="M 287.008,487.558 H 120.472 V 721.417 H 453.543 V 487.558 Z"
           style="fill:#d4ea6b;fill-opacity:1;fill-rule:evenodd;stroke:none"
           id="path22" /><g
           id="g24"><path
             d="M 287.008,487.558 H 120.472 V 721.417 H 453.543 V 487.558 Z"
             style="fill:none;stroke:#3465a4;stroke-width:0.75;stroke-linecap:butt;stroke-linejoin:round;stroke-miterlimit:10;stroke-dasharray:none;stroke-opacity:1"
             id="path26" /></g><path
           d="m 283.465,501.732 h -49.607 v 49.606 h 99.213 v -49.606 z"
           style="fill:#729fcf;fill-opacity:1;fill-rule:evenodd;stroke:none"
           id="path28" /><g
           id="g30"><path
             d="m 283.465,501.732 h -49.607 v 49.606 h 99.213 v -49.606 z"
             style="fill:none;stroke:#3465a4;stroke-width:0.75;stroke-linecap:butt;stroke-linejoin:round;stroke-miterlimit:10;stroke-dasharray:none;stroke-opacity:1"
             id="path32" /></g><g
           id="g34"><text
             transform="matrix(1,0,0,-1,266.4,530.39)"
             style="font-variant:normal;font-weight:normal;font-size:18px;font-family:'Liberation Sans';-inkscape-font-specification:LiberationSans;writing-mode:lr-tb;fill:#000000;fill-opacity:1;fill-rule:nonzero;stroke:none"
             id="text38"><tspan
               x="0 11.988 23.976 29.052"
               y="0"
               id="tspan36">SPI </tspan></text></g><g
           id="g40"><text
             transform="matrix(1,0,0,-1,244.998,510.179)"
             style="font-variant:normal;font-weight:normal;font-size:18px;font-family:'Liberation Sans';-inkscape-font-specification:LiberationSans;writing-mode:lr-tb;fill:#000000;fill-opacity:1;fill-rule:nonzero;stroke:none"
             id="text44"><tspan
               x="0 12.996 22.896 28.889999 38.897999 43.883999 55.872002 65.879997 71.874001"
               y="0"
               id="tspan42">Hard Port</tspan></text></g><path
           d="m 283.465,643.464 h -49.607 v 70.866 h 99.213 v -70.866 z"
           style="fill:#729fcf;fill-opacity:1;fill-rule:evenodd;stroke:none"
           id="path46" /><g
           id="g48"><path
             d="m 283.465,643.464 h -49.607 v 70.866 h 99.213 v -70.866 z"
             style="fill:none;stroke:#3465a4;stroke-width:0.75;stroke-linecap:butt;stroke-linejoin:round;stroke-miterlimit:10;stroke-dasharray:none;stroke-opacity:1"
             id="path50" /></g><g
           id="g52"><text
             transform="matrix(1,0,0,-1,236.211,672.576)"
             style="font-variant:normal;font-weight:normal;font-size:18px;font-family:'Liberation Sans';-inkscape-font-specification:LiberationSans;writing-mode:lr-tb;fill:#000000;fill-opacity:1;fill-rule:nonzero;stroke:none"
             id="text56"><tspan
               x="0 16.704 26.604 36.612 41.598 53.585999 63.594002 69.587997 78.587997 88.487999"
               y="0"
               id="tspan54">Web Server</tspan></text></g><g
           id="g58"><text
             transform="matrix(1,0,0,-1,239.187,652.478)"
             style="font-variant:normal;font-weight:normal;font-size:18px;font-family:'Liberation Sans';-inkscape-font-specification:LiberationSans;writing-mode:lr-tb;fill:#000000;fill-opacity:1;fill-rule:nonzero;stroke:none"
             id="text62"><tspan
               x="0 11.592 15.588 21.582001 26.568001 36.576 46.584 50.490002 55.476002 67.463997 77.472 83.466003"
               y="0"
               id="tspan60">Virtual Port</tspan></text></g><path
           d="m 177.165,643.464 h -49.606 v 70.866 h 99.213 v -70.866 z"
           style="fill:#729fcf;fill-opacity:1;fill-rule:evenodd;stroke:none"
           id="path64" /><g
           id="g66"><path
             d="m 177.165,643.464 h -49.606 v 70.866 h 99.213 v -70.866 z"
             style="fill:none;stroke:#3465a4;stroke-width:0.75;stroke-linecap:butt;stroke-linejoin:round;stroke-miterlimit:10;stroke-dasharray:none;stroke-opacity:1"
             id="path68" /></g><g
           id="g70"><text
             transform="matrix(1,0,0,-1,141.392,672.576)"
             style="font-variant:normal;font-weight:normal;font-size:18px;font-family:'Liberation Sans';-inkscape-font-specification:LiberationSans;writing-mode:lr-tb;fill:#000000;fill-opacity:1;fill-rule:nonzero;stroke:none"
             id="text74"><tspan
               x="0 11.988 22.59 27.666 42.66 52.560001 61.560001"
               y="0"
               id="tspan72">BT Mesh</tspan></text></g><g
           id="g76"><text
             transform="matrix(1,0,0,-1,132.888,652.478)"
             style="font-variant:normal;font-weight:normal;font-size:18px;font-family:'Liberation Sans';-inkscape-font-specification:LiberationSans;writing-mode:lr-tb;fill:#000000;fill-opacity:1;fill-rule:nonzero;stroke:none"
             id="text80"><tspan
               x="0 11.592 15.588 21.582001 26.568001 36.576 46.584 50.490002 55.476002 67.463997 77.472 83.466003"
               y="0"
               id="tspan78">Virtual Port</tspan></text></g><path
           d="M 389.764,643.464 H 340.157 V 714.33 H 439.37 V 643.464 Z"
           style="fill:#729fcf;fill-opacity:1;fill-rule:evenodd;stroke:none"
           id="path82" /><g
           id="g84"><path
             d="M 389.764,643.464 H 340.157 V 714.33 H 439.37 V 643.464 Z"
             style="fill:none;stroke:#3465a4;stroke-width:0.75;stroke-linecap:butt;stroke-linejoin:round;stroke-miterlimit:10;stroke-dasharray:none;stroke-opacity:1"
             id="path86" /></g><g
           id="g88"><text
             transform="matrix(1,0,0,-1,355.89,672.576)"
             style="font-variant:normal;font-weight:normal;font-size:18px;font-family:'Liberation Sans';-inkscape-font-specification:LiberationSans;writing-mode:lr-tb;fill:#000000;fill-opacity:1;fill-rule:nonzero;stroke:none"
             id="text92"><tspan
               x="0 9 18.9 24.893999 39.888 43.883999 53.784 63.792"
               y="0"
               id="tspan90">Terminal</tspan></text></g><g
           id="g94"><text
             transform="matrix(1,0,0,-1,345.487,652.478)"
             style="font-variant:normal;font-weight:normal;font-size:18px;font-family:'Liberation Sans';-inkscape-font-specification:LiberationSans;writing-mode:lr-tb;fill:#000000;fill-opacity:1;fill-rule:nonzero;stroke:none"
             id="text98"><tspan
               x="0 11.592 15.588 21.582001 26.568001 36.576 46.584 50.490002 55.476002 67.463997 77.472 83.466003"
               y="0"
               id="tspan96">Virtual Port</tspan></text></g><path
           d="m 354.302,597.372 c 0.085,-6.831 -3.118,-13.549 -9.269,-19.474 -6.151,-5.924 -15.052,-10.856 -25.795,-14.286 -10.715,-3.402 -22.932,-5.216 -35.377,-5.216 -12.444,0 -24.689,1.814 -35.489,5.216 -10.829,3.43 -19.815,8.362 -26.107,14.286 -6.293,5.925 -9.638,12.643 -9.723,19.474 -0.085,6.86 3.118,13.578 9.269,19.503 6.151,5.924 15.052,10.857 25.795,14.286 10.715,3.402 22.933,5.216 35.377,5.216 12.444,0 24.689,-1.814 35.489,-5.216 10.829,-3.429 19.815,-8.362 26.108,-14.286 6.292,-5.925 9.637,-12.643 9.722,-19.474 z"
           style="fill:#ff972f;fill-opacity:1;fill-rule:evenodd;stroke:none"
           id="path100" /><g
           id="g102"><path
             d="m 354.302,597.372 c 0.085,-6.831 -3.118,-13.549 -9.269,-19.474 -6.151,-5.924 -15.052,-10.856 -25.795,-14.286 -10.715,-3.402 -22.932,-5.216 -35.377,-5.216 -12.444,0 -24.689,1.814 -35.489,5.216 -10.829,3.43 -19.815,8.362 -26.107,14.286 -6.293,5.925 -9.638,12.643 -9.723,19.474 -0.085,6.86 3.118,13.578 9.269,19.503 6.151,5.924 15.052,10.857 25.795,14.286 10.715,3.402 22.933,5.216 35.377,5.216 12.444,0 24.689,-1.814 35.489,-5.216 10.829,-3.429 19.815,-8.362 26.108,-14.286 6.292,-5.925 9.637,-12.643 9.722,-19.474 z"
             style="fill:none;stroke:#3465a4;stroke-width:0.75;stroke-linecap:butt;stroke-linejoin:round;stroke-miterlimit:10;stroke-dasharray:none;stroke-opacity:1"
             id="path104" /></g><path
           d="m 229.124,612.254 0.142,-11.026 h -1.672 l -0.142,11.026 H 223.2 v 1.361 h 10.176 v -1.361 z"
           style="fill:#000000;fill-opacity:1;fill-rule:evenodd;stroke:none"
           id="path106" /><path
           d="m 236.665,609.108 c 0.311,0.595 0.737,1.077 1.19,1.361 0.482,0.283 1.077,0.425 1.814,0.425 1.049,0 1.786,-0.255 2.296,-0.766 0.482,-0.51 0.737,-1.36 0.766,-2.579 l 0.056,-6.35 H 241.2 l -0.057,6.038 c 0,0.68 -0.085,1.162 -0.198,1.502 -0.142,0.312 -0.34,0.567 -0.624,0.709 -0.283,0.142 -0.68,0.227 -1.162,0.227 -0.765,0 -1.332,-0.255 -1.786,-0.766 -0.453,-0.51 -0.652,-1.218 -0.652,-2.097 l 0.057,-5.613 h -1.559 l -0.17,13.068 h 1.587 l 0.029,-3.402 c 0.028,-0.368 0,-0.737 0,-1.105 -0.029,-0.397 -0.029,-0.595 -0.029,-0.652 z"
           style="fill:#000000;fill-opacity:1;fill-rule:evenodd;stroke:none"
           id="path108" /><path
           d="m 244.998,612.765 v 1.502 h 1.588 v -1.502 z m 0.142,-11.566 -0.113,9.525 h 1.587 l 0.114,-9.525 z"
           style="fill:#000000;fill-opacity:1;fill-rule:evenodd;stroke:none"
           id="path110" /><path
           d="m 255.146,601.228 -0.056,6.037 c 0,0.624 -0.085,1.106 -0.199,1.446 -0.141,0.369 -0.34,0.595 -0.595,0.765 -0.283,0.142 -0.68,0.227 -1.19,0.227 -0.766,0 -1.361,-0.255 -1.815,-0.794 -0.425,-0.51 -0.623,-1.247 -0.623,-2.154 l 0.056,-5.527 h -1.587 l -0.057,7.483 c -0.028,1.106 -0.056,1.786 -0.085,2.041 h 1.503 c 0,-0.028 0,-0.113 0,-0.255 0.028,-0.114 0.028,-0.255 0.028,-0.425 0.028,-0.17 0.028,-0.482 0.057,-0.964 h 0.028 c 0.34,0.68 0.765,1.134 1.247,1.417 0.454,0.255 1.049,0.397 1.758,0.397 1.049,0 1.814,-0.255 2.296,-0.765 0.482,-0.539 0.737,-1.389 0.765,-2.58 l 0.057,-6.349 z"
           style="fill:#000000;fill-opacity:1;fill-rule:evenodd;stroke:none"
           id="path112" /><path
           d="m 262.715,597.486 c -1.049,0 -1.871,0.198 -2.495,0.623 -0.623,0.397 -1.02,0.964 -1.19,1.73 l 1.587,0.226 c 0.114,-0.425 0.34,-0.765 0.709,-1.02 0.368,-0.227 0.822,-0.34 1.417,-0.34 1.588,0 2.353,0.907 2.325,2.749 v 1.559 h -0.029 c -0.283,-0.623 -0.708,-1.077 -1.219,-1.389 -0.51,-0.311 -1.133,-0.453 -1.814,-0.453 -1.162,0 -2.041,0.368 -2.579,1.162 -0.567,0.765 -0.851,1.984 -0.879,3.628 0,1.701 0.255,2.92 0.85,3.742 0.567,0.794 1.474,1.191 2.665,1.191 0.68,0 1.276,-0.142 1.757,-0.454 0.511,-0.312 0.879,-0.765 1.163,-1.332 h 0.028 c 0,0.198 0,0.482 0.028,0.935 0,0.426 0.029,0.652 0.057,0.709 h 1.502 c -0.028,-0.312 -0.056,-0.992 -0.028,-1.984 l 0.085,-7.257 c 0.028,-2.693 -1.275,-4.025 -3.94,-4.025 z m 2.296,8.504 c 0,0.765 -0.113,1.445 -0.34,1.984 -0.199,0.567 -0.51,0.992 -0.907,1.304 -0.369,0.283 -0.822,0.425 -1.304,0.425 -0.794,0 -1.389,-0.283 -1.758,-0.879 -0.34,-0.566 -0.538,-1.53 -0.51,-2.834 0,-1.304 0.199,-2.24 0.539,-2.807 0.368,-0.566 0.963,-0.85 1.786,-0.85 0.51,0 0.935,0.142 1.332,0.425 0.368,0.312 0.68,0.737 0.879,1.276 0.198,0.538 0.311,1.19 0.283,1.956 z"
           style="fill:#000000;fill-opacity:1;fill-rule:evenodd;stroke:none"
           id="path114" /><path
           d="m 278.929,604.658 c 0.028,-1.134 -0.397,-2.041 -1.304,-2.665 -0.879,-0.624 -2.126,-0.935 -3.77,-0.935 -3.005,0 -4.762,1.048 -5.272,3.146 l 1.615,0.34 c 0.199,-0.765 0.624,-1.304 1.219,-1.644 0.624,-0.368 1.446,-0.539 2.495,-0.539 1.077,0 1.927,0.199 2.494,0.567 0.596,0.369 0.879,0.907 0.879,1.644 0,0.397 -0.113,0.737 -0.283,0.993 -0.199,0.226 -0.454,0.453 -0.794,0.623 -0.34,0.142 -0.737,0.284 -1.191,0.397 -0.482,0.113 -0.992,0.227 -1.559,0.369 -0.964,0.226 -1.729,0.425 -2.239,0.652 -0.482,0.226 -0.907,0.453 -1.191,0.708 -0.311,0.284 -0.538,0.595 -0.68,0.964 -0.17,0.34 -0.255,0.765 -0.255,1.219 0,1.049 0.397,1.871 1.19,2.466 0.794,0.567 1.956,0.85 3.487,0.85 1.389,0 2.466,-0.226 3.232,-0.652 0.737,-0.425 1.275,-1.162 1.587,-2.211 l -1.644,-0.283 c -0.199,0.652 -0.539,1.134 -1.077,1.446 -0.511,0.283 -1.219,0.425 -2.098,0.425 -0.992,0 -1.757,-0.17 -2.268,-0.482 -0.538,-0.34 -0.793,-0.822 -0.765,-1.474 0,-0.369 0.113,-0.68 0.312,-0.936 0.198,-0.255 0.482,-0.481 0.879,-0.651 0.368,-0.171 1.133,-0.369 2.267,-0.624 0.397,-0.085 0.766,-0.17 1.162,-0.284 0.369,-0.085 0.737,-0.198 1.078,-0.311 0.34,-0.142 0.68,-0.284 0.992,-0.454 0.283,-0.17 0.567,-0.368 0.793,-0.624 0.227,-0.226 0.397,-0.538 0.511,-0.85 0.141,-0.34 0.198,-0.737 0.198,-1.19 z"
           style="fill:#000000;fill-opacity:1;fill-rule:evenodd;stroke:none"
           id="path116" /><path
           d="m 282.189,605.65 c 0.028,-1.078 0.255,-1.928 0.709,-2.523 0.453,-0.595 1.133,-0.879 1.984,-0.879 0.68,0 1.247,0.142 1.644,0.397 0.425,0.283 0.68,0.624 0.822,1.049 l 1.417,-0.397 c -0.567,-1.502 -1.842,-2.239 -3.855,-2.239 -1.417,0 -2.494,0.425 -3.231,1.247 -0.737,0.85 -1.134,2.097 -1.134,3.741 -0.028,1.588 0.312,2.778 1.049,3.629 0.737,0.822 1.757,1.247 3.146,1.247 2.778,0 4.195,-1.672 4.252,-5.046 v -0.226 z m 5.131,1.219 c -0.085,0.992 -0.34,1.729 -0.766,2.211 -0.425,0.453 -1.048,0.68 -1.842,0.68 -0.766,0 -1.361,-0.255 -1.814,-0.765 -0.426,-0.511 -0.681,-1.219 -0.709,-2.126 z"
           style="fill:#000000;fill-opacity:1;fill-rule:evenodd;stroke:none"
           id="path118" /><path
           d="m 294.633,601.284 c -0.51,-0.141 -1.049,-0.198 -1.587,-0.198 -1.276,0 -1.9,0.709 -1.928,2.154 l -0.085,6.35 h -1.077 l -0.028,1.162 h 1.162 l 0.453,2.126 h 1.049 l 0.028,-2.126 h 1.758 v -1.162 h -1.758 l 0.086,-6.01 c 0,-0.453 0.085,-0.765 0.226,-0.963 0.142,-0.171 0.425,-0.284 0.794,-0.284 0.198,0 0.51,0.057 0.907,0.142 z"
           style="fill:#000000;fill-opacity:1;fill-rule:evenodd;stroke:none"
           id="path120" /><path
           d="m 311.868,601.228 -0.085,8.277 c -0.029,0.907 0,1.786 0.028,2.636 -0.255,-1.049 -0.51,-1.871 -0.737,-2.466 l -3.09,-8.447 h -1.19 l -3.345,8.447 -0.51,1.502 -0.284,0.964 0.028,-0.964 0.057,-1.672 0.085,-8.277 h -1.474 l -0.142,12.387 h 2.183 l 3.402,-8.589 c 0.113,-0.34 0.255,-0.709 0.368,-1.106 0.114,-0.396 0.17,-0.68 0.199,-0.85 0.056,0.227 0.141,0.567 0.283,1.049 0.142,0.482 0.255,0.794 0.312,0.907 l 3.118,8.589 h 2.154 l 0.142,-12.387 z"
           style="fill:#000000;fill-opacity:1;fill-rule:evenodd;stroke:none"
           id="path122" /><path
           d="m 317.225,605.65 c 0.029,-1.078 0.255,-1.928 0.709,-2.523 0.453,-0.595 1.134,-0.879 1.984,-0.879 0.68,0 1.247,0.142 1.644,0.397 0.425,0.283 0.681,0.624 0.822,1.049 l 1.418,-0.397 c -0.567,-1.502 -1.843,-2.239 -3.856,-2.239 -1.417,0 -2.494,0.425 -3.231,1.247 -0.737,0.85 -1.134,2.097 -1.134,3.741 -0.028,1.588 0.312,2.778 1.049,3.629 0.737,0.822 1.757,1.247 3.146,1.247 2.778,0 4.196,-1.672 4.252,-5.046 v -0.226 z m 5.131,1.219 c -0.085,0.992 -0.34,1.729 -0.765,2.211 -0.426,0.453 -1.049,0.68 -1.843,0.68 -0.765,0 -1.361,-0.255 -1.814,-0.765 -0.425,-0.511 -0.68,-1.219 -0.709,-2.126 z"
           style="fill:#000000;fill-opacity:1;fill-rule:evenodd;stroke:none"
           id="path124" /><path
           d="m 333.128,603.864 c 0,-0.907 -0.312,-1.588 -0.993,-2.069 -0.68,-0.482 -1.615,-0.737 -2.834,-0.737 -1.191,0 -2.098,0.198 -2.75,0.595 -0.652,0.368 -1.077,0.992 -1.275,1.814 l 1.389,0.283 c 0.141,-0.51 0.425,-0.907 0.85,-1.133 0.425,-0.227 1.02,-0.341 1.757,-0.341 0.822,0 1.389,0.114 1.786,0.369 0.369,0.227 0.539,0.595 0.539,1.105 0,0.369 -0.142,0.681 -0.397,0.908 -0.255,0.226 -0.68,0.425 -1.276,0.566 l -1.133,0.312 c -0.908,0.227 -1.56,0.454 -1.928,0.681 -0.397,0.226 -0.709,0.51 -0.907,0.822 -0.227,0.34 -0.34,0.737 -0.34,1.19 -0.029,0.879 0.283,1.531 0.907,1.984 0.595,0.454 1.502,0.681 2.693,0.681 1.049,0 1.871,-0.17 2.494,-0.539 0.624,-0.368 1.021,-0.964 1.191,-1.786 l -1.418,-0.17 c -0.085,0.425 -0.34,0.737 -0.708,0.964 -0.397,0.227 -0.907,0.34 -1.559,0.34 -0.709,0 -1.247,-0.113 -1.588,-0.312 -0.311,-0.226 -0.482,-0.567 -0.482,-0.992 0,-0.283 0.085,-0.51 0.227,-0.68 0.142,-0.17 0.34,-0.312 0.624,-0.454 0.283,-0.113 0.85,-0.283 1.729,-0.51 0.85,-0.198 1.446,-0.397 1.814,-0.567 0.397,-0.198 0.68,-0.397 0.907,-0.595 0.199,-0.227 0.369,-0.482 0.482,-0.765 0.142,-0.284 0.199,-0.596 0.199,-0.964 z"
           style="fill:#000000;fill-opacity:1;fill-rule:evenodd;stroke:none"
           id="path126" /><path
           d="m 336.529,609.108 c 0.312,0.595 0.737,1.077 1.191,1.361 0.482,0.283 1.077,0.425 1.814,0.425 1.049,0 1.786,-0.255 2.296,-0.766 0.482,-0.51 0.737,-1.36 0.765,-2.579 l 0.057,-6.35 h -1.587 l -0.057,6.038 c 0,0.68 -0.085,1.162 -0.199,1.502 -0.141,0.312 -0.34,0.567 -0.623,0.709 -0.284,0.142 -0.68,0.227 -1.162,0.227 -0.766,0 -1.333,-0.255 -1.786,-0.766 -0.454,-0.51 -0.652,-1.218 -0.652,-2.097 l 0.057,-5.613 h -1.56 l -0.17,13.068 h 1.588 l 0.028,-3.402 c 0.028,-0.368 0,-0.737 0,-1.105 -0.028,-0.397 -0.028,-0.595 -0.028,-0.652 z"
           style="fill:#000000;fill-opacity:1;fill-rule:evenodd;stroke:none"
           id="path128" /><path
           d="m 253.814,581.073 -0.142,12.388 h 1.673 l 0.142,-12.388 z"
           style="fill:#000000;fill-opacity:1;fill-rule:evenodd;stroke:none"
           id="path130" /><path
           d="m 264.444,581.073 -0.057,6.038 c 0,0.624 -0.085,1.106 -0.198,1.446 -0.142,0.368 -0.34,0.595 -0.595,0.765 -0.284,0.142 -0.681,0.227 -1.191,0.227 -0.765,0 -1.36,-0.255 -1.786,-0.794 -0.453,-0.51 -0.652,-1.247 -0.652,-2.154 l 0.057,-5.528 h -1.559 l -0.085,7.484 c -0.028,1.105 -0.057,1.786 -0.085,2.041 h 1.502 c 0,-0.029 0,-0.114 0,-0.255 0.029,-0.114 0.029,-0.256 0.029,-0.426 0.028,-0.17 0.028,-0.482 0.056,-0.963 h 0.029 c 0.34,0.68 0.765,1.133 1.247,1.417 0.453,0.255 1.049,0.397 1.757,0.397 1.049,0 1.815,-0.255 2.296,-0.766 0.511,-0.538 0.737,-1.389 0.766,-2.579 l 0.056,-6.35 z"
           style="fill:#000000;fill-opacity:1;fill-rule:evenodd;stroke:none"
           id="path132" /><path
           d="m 275.471,583.709 c 0,-0.907 -0.312,-1.587 -0.992,-2.069 -0.681,-0.482 -1.616,-0.737 -2.835,-0.737 -1.19,0 -2.098,0.199 -2.75,0.595 -0.651,0.369 -1.077,0.993 -1.275,1.815 l 1.389,0.283 c 0.142,-0.51 0.425,-0.907 0.85,-1.134 0.425,-0.227 1.021,-0.34 1.786,-0.34 0.794,0 1.389,0.113 1.758,0.369 0.368,0.226 0.538,0.595 0.538,1.105 0,0.369 -0.142,0.68 -0.397,0.907 -0.255,0.227 -0.68,0.425 -1.247,0.567 l -1.162,0.312 c -0.907,0.227 -1.559,0.453 -1.928,0.68 -0.397,0.227 -0.708,0.51 -0.907,0.822 -0.227,0.34 -0.34,0.737 -0.34,1.191 -0.028,0.879 0.284,1.531 0.907,1.984 0.595,0.454 1.503,0.68 2.693,0.68 1.049,0 1.871,-0.17 2.495,-0.538 0.623,-0.369 1.02,-0.964 1.19,-1.786 l -1.417,-0.17 c -0.085,0.425 -0.34,0.737 -0.709,0.964 -0.397,0.226 -0.907,0.34 -1.559,0.34 -0.709,0 -1.247,-0.114 -1.559,-0.312 -0.34,-0.227 -0.51,-0.567 -0.51,-0.992 0,-0.284 0.085,-0.51 0.227,-0.68 0.141,-0.17 0.34,-0.312 0.623,-0.454 0.284,-0.113 0.851,-0.283 1.729,-0.51 0.851,-0.199 1.446,-0.397 1.843,-0.567 0.368,-0.199 0.652,-0.397 0.879,-0.595 0.198,-0.227 0.368,-0.482 0.481,-0.766 0.142,-0.283 0.199,-0.595 0.199,-0.964 z"
           style="fill:#000000;fill-opacity:1;fill-rule:evenodd;stroke:none"
           id="path134" /><path
           d="m 280.998,581.13 c -0.51,-0.142 -1.048,-0.198 -1.587,-0.198 -1.276,0 -1.899,0.708 -1.928,2.154 l -0.056,6.349 h -1.106 l -0.028,1.163 h 1.162 l 0.454,2.126 h 1.048 l 0.029,-2.126 h 1.757 v -1.163 h -1.757 l 0.085,-6.009 c 0,-0.454 0.085,-0.765 0.227,-0.964 0.141,-0.17 0.425,-0.283 0.793,-0.283 0.199,0 0.511,0.056 0.907,0.141 z"
           style="fill:#000000;fill-opacity:1;fill-rule:evenodd;stroke:none"
           id="path136" /><path
           d="m 284.825,580.903 c -0.964,0 -1.672,0.255 -2.154,0.766 -0.482,0.481 -0.737,1.19 -0.765,2.069 0,0.992 0.311,1.729 0.963,2.268 0.624,0.51 1.673,0.793 3.118,0.85 l 2.126,0.028 v 0.511 c 0,0.765 -0.17,1.332 -0.51,1.672 -0.34,0.34 -0.85,0.482 -1.559,0.482 -0.709,0 -1.219,-0.114 -1.531,-0.34 -0.311,-0.255 -0.51,-0.624 -0.567,-1.163 l -1.644,0.142 c 0.227,1.729 1.503,2.58 3.77,2.58 1.191,0 2.098,-0.284 2.722,-0.822 0.595,-0.539 0.907,-1.333 0.907,-2.381 l 0.056,-4.111 c 0,-0.453 0.086,-0.822 0.199,-1.048 0.113,-0.227 0.368,-0.341 0.709,-0.341 0.141,0 0.311,0 0.51,0.057 l 0.028,-0.992 c -0.397,-0.085 -0.822,-0.142 -1.219,-0.142 -0.595,0 -1.02,0.142 -1.304,0.454 -0.255,0.312 -0.425,0.793 -0.453,1.445 h -0.057 c -0.397,-0.708 -0.85,-1.218 -1.389,-1.53 -0.538,-0.312 -1.19,-0.454 -1.956,-0.454 z m 0.34,1.191 c 0.596,0 1.106,0.141 1.559,0.397 0.426,0.255 0.794,0.623 1.049,1.077 0.255,0.453 0.369,0.935 0.369,1.417 v 0.794 l -1.729,-0.029 c -0.766,-0.028 -1.304,-0.113 -1.701,-0.226 -0.369,-0.142 -0.681,-0.369 -0.879,-0.652 -0.198,-0.312 -0.283,-0.681 -0.283,-1.163 0,-0.51 0.141,-0.907 0.425,-1.19 0.283,-0.284 0.68,-0.425 1.19,-0.425 z"
           style="fill:#000000;fill-opacity:1;fill-rule:evenodd;stroke:none"
           id="path138" /><path
           d="m 298.403,581.073 -0.057,6.038 c 0,0.624 -0.085,1.106 -0.198,1.446 -0.142,0.368 -0.34,0.595 -0.595,0.765 -0.284,0.142 -0.681,0.227 -1.191,0.227 -0.765,0 -1.36,-0.255 -1.786,-0.794 -0.453,-0.51 -0.652,-1.247 -0.652,-2.154 l 0.057,-5.528 h -1.559 l -0.085,7.484 c -0.028,1.105 -0.057,1.786 -0.085,2.041 h 1.502 c 0,-0.029 0,-0.114 0,-0.255 0.029,-0.114 0.029,-0.256 0.029,-0.426 0.028,-0.17 0.028,-0.482 0.056,-0.963 h 0.029 c 0.34,0.68 0.765,1.133 1.247,1.417 0.454,0.255 1.049,0.397 1.757,0.397 1.049,0 1.815,-0.255 2.297,-0.766 0.51,-0.538 0.737,-1.389 0.765,-2.579 l 0.057,-6.35 z"
           style="fill:#000000;fill-opacity:1;fill-rule:evenodd;stroke:none"
           id="path140" /><path
           d="m 303.477,585.892 c 0,-1.275 0.227,-2.211 0.624,-2.834 0.397,-0.596 1.02,-0.908 1.814,-0.908 0.567,0 1.02,0.142 1.417,0.454 0.369,0.312 0.596,0.765 0.681,1.417 l 1.587,-0.113 c -0.113,-0.907 -0.482,-1.644 -1.134,-2.183 -0.652,-0.538 -1.474,-0.822 -2.494,-0.822 -1.333,0 -2.353,0.425 -3.062,1.247 -0.708,0.851 -1.077,2.07 -1.077,3.685 -0.028,1.616 0.312,2.835 0.992,3.657 0.709,0.851 1.701,1.276 3.005,1.276 0.992,0 1.786,-0.255 2.438,-0.766 0.652,-0.482 1.077,-1.19 1.247,-2.069 l -1.644,-0.142 c -0.085,0.539 -0.284,0.964 -0.624,1.276 -0.34,0.312 -0.822,0.453 -1.445,0.453 -0.822,0 -1.418,-0.283 -1.786,-0.822 -0.369,-0.566 -0.567,-1.502 -0.539,-2.806 z"
           style="fill:#000000;fill-opacity:1;fill-rule:evenodd;stroke:none"
           id="path142" /><path
           d="m 312.491,585.495 c 0.029,-1.077 0.255,-1.927 0.709,-2.523 0.454,-0.595 1.134,-0.878 1.984,-0.878 0.709,0 1.247,0.141 1.644,0.397 0.426,0.283 0.681,0.623 0.822,1.048 l 1.418,-0.396 c -0.567,-1.503 -1.843,-2.24 -3.855,-2.24 -1.418,0 -2.495,0.425 -3.232,1.247 -0.737,0.851 -1.134,2.098 -1.134,3.742 -0.028,1.588 0.312,2.778 1.049,3.628 0.737,0.823 1.786,1.248 3.147,1.248 2.777,0 4.195,-1.673 4.251,-5.046 v -0.227 z m 5.159,1.219 c -0.113,0.992 -0.368,1.729 -0.793,2.211 -0.426,0.454 -1.049,0.681 -1.843,0.681 -0.765,0 -1.36,-0.256 -1.814,-0.766 -0.425,-0.51 -0.68,-1.219 -0.709,-2.126 z"
           style="fill:#000000;fill-opacity:1;fill-rule:evenodd;stroke:none"
           id="path144" /><g
           id="g146"><text
             transform="matrix(1,0,0,-1,106.299,758.182)"
             style="font-variant:normal;font-weight:normal;font-size:18px;font-family:'Liberation Sans';-inkscape-font-specification:LiberationSans;writing-mode:lr-tb;fill:#000000;fill-opacity:1;fill-rule:nonzero;stroke:none"
             id="text150"><tspan
               x="0 11.988 15.984 25.884001 35.891998 40.877998 50.886002 60.785999 65.862"
               y="0"
               id="tspan148">Bluetooth</tspan></text></g><g
           id="g152"><text
             transform="matrix(1,0,0,-1,226.8,758.182)"
             style="font-variant:normal;font-weight:normal;font-size:18px;font-family:'Liberation Sans';-inkscape-font-specification:LiberationSans;writing-mode:lr-tb;fill:#000000;fill-opacity:1;fill-rule:nonzero;stroke:none"
             id="text156"><tspan
               x="0 16.974001 20.969999 31.950001"
               y="0"
               id="tspan154">WiFi</tspan></text></g><g
           id="g158"><text
             transform="matrix(1,0,0,-1,326.013,758.182)"
             style="font-variant:normal;font-weight:normal;font-size:18px;font-family:'Liberation Sans';-inkscape-font-specification:LiberationSans;writing-mode:lr-tb;fill:#000000;fill-opacity:1;fill-rule:nonzero;stroke:none"
             id="text162"><tspan
               x="0 12.906 24.983999 34.883999 44.891998"
               y="0"
               id="tspan160">RS232</tspan></text></g><path
           d="M 287.008,225.354 H 120.472 V 459.212 H 453.543 V 225.354 Z"
           style="fill:#d4ea6b;fill-opacity:1;fill-rule:evenodd;stroke:none"
           id="path164" /><g
           id="g166"><path
             d="M 287.008,225.354 H 120.472 V 459.212 H 453.543 V 225.354 Z"
             style="fill:none;stroke:#3465a4;stroke-width:0.75;stroke-linecap:butt;stroke-linejoin:round;stroke-miterlimit:10;stroke-dasharray:none;stroke-opacity:1"
             id="path168" /></g><path
           d="m 283.465,445.095 -14.202,11.225 7.087,0.029 -0.114,34.129 -7.086,-0.028 14.144,11.367 14.23,-11.254 -7.115,-0.028 0.114,-34.129 7.115,0.028 z"
           style="fill:#ea7500;fill-opacity:1;fill-rule:evenodd;stroke:none"
           id="path170" /><g
           id="g172"><path
             d="m 283.465,445.095 -14.202,11.225 7.087,0.029 -0.114,34.129 -7.086,-0.028 14.144,11.367 14.23,-11.254 -7.115,-0.028 0.114,-34.129 7.115,0.028 z"
             style="fill:none;stroke:#3465a4;stroke-width:0.75;stroke-linecap:butt;stroke-linejoin:round;stroke-miterlimit:10;stroke-dasharray:none;stroke-opacity:1"
             id="path174" /></g><path
           d="m 283.465,395.432 h -49.607 v 49.607 h 99.213 v -49.607 z"
           style="fill:#729fcf;fill-opacity:1;fill-rule:evenodd;stroke:none"
           id="path176" /><g
           id="g178"><path
             d="m 283.465,395.432 h -49.607 v 49.607 h 99.213 v -49.607 z"
             style="fill:none;stroke:#3465a4;stroke-width:0.75;stroke-linecap:butt;stroke-linejoin:round;stroke-miterlimit:10;stroke-dasharray:none;stroke-opacity:1"
             id="path180" /></g><g
           id="g182"><text
             transform="matrix(1,0,0,-1,266.4,424.091)"
             style="font-variant:normal;font-weight:normal;font-size:18px;font-family:'Liberation Sans';-inkscape-font-specification:LiberationSans;writing-mode:lr-tb;fill:#000000;fill-opacity:1;fill-rule:nonzero;stroke:none"
             id="text186"><tspan
               x="0 11.988 23.976 29.052"
               y="0"
               id="tspan184">SPI </tspan></text></g><g
           id="g188"><text
             transform="matrix(1,0,0,-1,244.998,403.88)"
             style="font-variant:normal;font-weight:normal;font-size:18px;font-family:'Liberation Sans';-inkscape-font-specification:LiberationSans;writing-mode:lr-tb;fill:#000000;fill-opacity:1;fill-rule:nonzero;stroke:none"
             id="text192"><tspan
               x="0 12.996 22.896 28.889999 38.897999 43.883999 55.872002 65.879997 71.874001"
               y="0"
               id="tspan190">Hard Port</tspan></text></g><path
           d="m 353.906,349.341 c 0.085,-6.832 -3.119,-13.55 -9.27,-19.474 -6.151,-5.924 -15.052,-10.857 -25.795,-14.287 -10.715,-3.401 -22.932,-5.215 -35.376,-5.215 -12.445,0 -24.69,1.814 -35.49,5.215 -10.829,3.43 -19.814,8.363 -26.107,14.287 -6.293,5.924 -9.638,12.642 -9.723,19.474 -0.085,6.86 3.118,13.578 9.269,19.502 6.151,5.925 15.052,10.857 25.795,14.287 10.715,3.402 22.933,5.216 35.377,5.216 12.444,0 24.69,-1.814 35.49,-5.216 10.828,-3.43 19.814,-8.362 26.107,-14.287 6.293,-5.924 9.637,-12.642 9.723,-19.502 z"
           style="fill:#ff972f;fill-opacity:1;fill-rule:evenodd;stroke:none"
           id="path194" /><g
           id="g196"><path
             d="m 353.906,349.341 c 0.085,-6.832 -3.119,-13.55 -9.27,-19.474 -6.151,-5.924 -15.052,-10.857 -25.795,-14.287 -10.715,-3.401 -22.932,-5.215 -35.376,-5.215 -12.445,0 -24.69,1.814 -35.49,5.215 -10.829,3.43 -19.814,8.363 -26.107,14.287 -6.293,5.924 -9.638,12.642 -9.723,19.474 -0.085,6.86 3.118,13.578 9.269,19.502 6.151,5.925 15.052,10.857 25.795,14.287 10.715,3.402 22.933,5.216 35.377,5.216 12.444,0 24.69,-1.814 35.49,-5.216 10.828,-3.43 19.814,-8.362 26.107,-14.287 6.293,-5.924 9.637,-12.642 9.723,-19.502 z"
             style="fill:none;stroke:#3465a4;stroke-width:0.75;stroke-linecap:butt;stroke-linejoin:round;stroke-miterlimit:10;stroke-dasharray:none;stroke-opacity:1"
             id="path198" /></g><path
           d="m 228.728,364.223 0.141,-11.027 h -1.672 l -0.142,11.027 h -4.252 v 1.36 h 10.177 v -1.36 z"
           style="fill:#000000;fill-opacity:1;fill-rule:evenodd;stroke:none"
           id="path200" /><path
           d="m 236.268,361.076 c 0.312,0.596 0.737,1.078 1.19,1.361 0.482,0.283 1.077,0.425 1.814,0.425 1.049,0 1.786,-0.255 2.297,-0.765 0.481,-0.51 0.737,-1.361 0.765,-2.58 l 0.057,-6.349 h -1.588 l -0.057,6.038 c 0,0.68 -0.085,1.162 -0.198,1.502 -0.142,0.312 -0.34,0.567 -0.624,0.709 -0.283,0.141 -0.68,0.226 -1.162,0.226 -0.765,0 -1.332,-0.255 -1.786,-0.765 -0.453,-0.51 -0.652,-1.219 -0.652,-2.098 l 0.057,-5.612 h -1.559 l -0.17,13.067 h 1.587 l 0.029,-3.401 c 0.028,-0.369 0,-0.737 0,-1.106 -0.029,-0.396 -0.029,-0.595 -0.029,-0.652 z"
           style="fill:#000000;fill-opacity:1;fill-rule:evenodd;stroke:none"
           id="path202" /><path
           d="m 244.602,364.733 v 1.502 h 1.587 v -1.502 z m 0.141,-11.565 -0.113,9.524 h 1.587 l 0.114,-9.524 z"
           style="fill:#000000;fill-opacity:1;fill-rule:evenodd;stroke:none"
           id="path204" /><path
           d="m 254.75,353.196 -0.057,6.038 c 0,0.624 -0.085,1.105 -0.199,1.446 -0.141,0.368 -0.34,0.595 -0.595,0.765 -0.283,0.142 -0.68,0.227 -1.19,0.227 -0.766,0 -1.361,-0.255 -1.815,-0.794 -0.425,-0.51 -0.623,-1.247 -0.623,-2.154 l 0.057,-5.528 h -1.588 l -0.057,7.484 c -0.028,1.105 -0.056,1.785 -0.085,2.04 h 1.503 c 0,-0.028 0,-0.113 0,-0.255 0.028,-0.113 0.028,-0.255 0.028,-0.425 0.028,-0.17 0.028,-0.482 0.057,-0.964 h 0.028 c 0.34,0.681 0.766,1.134 1.247,1.418 0.454,0.255 1.049,0.397 1.758,0.397 1.049,0 1.814,-0.256 2.296,-0.766 0.482,-0.538 0.737,-1.389 0.765,-2.579 l 0.057,-6.35 z"
           style="fill:#000000;fill-opacity:1;fill-rule:evenodd;stroke:none"
           id="path206" /><path
           d="m 262.318,349.454 c -1.049,0 -1.871,0.199 -2.494,0.624 -0.624,0.397 -1.021,0.964 -1.191,1.729 l 1.587,0.227 c 0.114,-0.425 0.341,-0.765 0.709,-1.021 0.369,-0.226 0.822,-0.34 1.417,-0.34 1.588,0 2.353,0.907 2.325,2.75 v 1.559 h -0.028 c -0.284,-0.624 -0.709,-1.077 -1.219,-1.389 -0.511,-0.312 -1.134,-0.454 -1.815,-0.454 -1.162,0 -2.04,0.369 -2.579,1.163 -0.567,0.765 -0.85,1.984 -0.879,3.628 0,1.701 0.255,2.92 0.851,3.742 0.567,0.793 1.474,1.19 2.664,1.19 0.68,0 1.276,-0.142 1.758,-0.453 0.51,-0.312 0.878,-0.766 1.162,-1.333 h 0.028 c 0,0.199 0,0.482 0.029,0.936 0,0.425 0.028,0.652 0.056,0.708 h 1.503 c -0.029,-0.311 -0.057,-0.992 -0.029,-1.984 l 0.085,-7.256 c 0.029,-2.693 -1.275,-4.026 -3.94,-4.026 z m 2.296,8.504 c 0,0.766 -0.113,1.446 -0.34,1.985 -0.198,0.566 -0.51,0.992 -0.907,1.303 -0.369,0.284 -0.822,0.426 -1.304,0.426 -0.794,0 -1.389,-0.284 -1.757,-0.879 -0.341,-0.567 -0.539,-1.531 -0.511,-2.835 0,-1.304 0.199,-2.239 0.539,-2.806 0.368,-0.567 0.964,-0.85 1.786,-0.85 0.51,0 0.935,0.141 1.332,0.425 0.368,0.312 0.68,0.737 0.879,1.275 0.198,0.539 0.312,1.191 0.283,1.956 z"
           style="fill:#000000;fill-opacity:1;fill-rule:evenodd;stroke:none"
           id="path208" /><path
           d="m 278.532,356.626 c 0.029,-1.134 -0.397,-2.041 -1.304,-2.665 -0.878,-0.623 -2.126,-0.935 -3.77,-0.935 -3.004,0 -4.762,1.049 -5.272,3.146 l 1.616,0.341 c 0.198,-0.766 0.623,-1.304 1.218,-1.644 0.624,-0.369 1.446,-0.539 2.495,-0.539 1.077,0 1.928,0.198 2.494,0.567 0.596,0.368 0.879,0.907 0.879,1.644 0,0.397 -0.113,0.737 -0.283,0.992 -0.199,0.227 -0.454,0.454 -0.794,0.624 -0.34,0.141 -0.737,0.283 -1.191,0.397 -0.481,0.113 -0.992,0.226 -1.559,0.368 -0.963,0.227 -1.729,0.425 -2.239,0.652 -0.482,0.227 -0.907,0.454 -1.191,0.709 -0.311,0.283 -0.538,0.595 -0.68,0.963 -0.17,0.341 -0.255,0.766 -0.255,1.219 0,1.049 0.397,1.871 1.191,2.467 0.793,0.566 1.956,0.85 3.486,0.85 1.389,0 2.466,-0.227 3.232,-0.652 0.737,-0.425 1.275,-1.162 1.587,-2.211 l -1.644,-0.284 c -0.198,0.652 -0.539,1.134 -1.077,1.446 -0.51,0.284 -1.219,0.425 -2.098,0.425 -0.992,0 -1.757,-0.17 -2.267,-0.482 -0.539,-0.34 -0.794,-0.822 -0.766,-1.474 0,-0.368 0.114,-0.68 0.312,-0.935 0.198,-0.255 0.482,-0.482 0.879,-0.652 0.368,-0.17 1.134,-0.368 2.267,-0.624 0.397,-0.085 0.766,-0.17 1.163,-0.283 0.368,-0.085 0.737,-0.198 1.077,-0.312 0.34,-0.142 0.68,-0.283 0.992,-0.453 0.283,-0.171 0.567,-0.369 0.794,-0.624 0.226,-0.227 0.396,-0.539 0.51,-0.85 0.142,-0.341 0.198,-0.737 0.198,-1.191 z"
           style="fill:#000000;fill-opacity:1;fill-rule:evenodd;stroke:none"
           id="path210" /><path
           d="m 281.792,357.618 c 0.028,-1.077 0.255,-1.927 0.709,-2.523 0.453,-0.595 1.134,-0.878 1.984,-0.878 0.68,0 1.247,0.141 1.644,0.396 0.425,0.284 0.68,0.624 0.822,1.049 l 1.418,-0.397 c -0.567,-1.502 -1.843,-2.239 -3.856,-2.239 -1.417,0 -2.494,0.425 -3.231,1.247 -0.737,0.851 -1.134,2.098 -1.134,3.742 -0.028,1.587 0.312,2.778 1.049,3.628 0.737,0.822 1.757,1.248 3.146,1.248 2.778,0 4.196,-1.673 4.252,-5.046 v -0.227 z m 5.131,1.219 c -0.085,0.992 -0.34,1.729 -0.766,2.211 -0.425,0.454 -1.048,0.68 -1.842,0.68 -0.765,0 -1.361,-0.255 -1.814,-0.765 -0.425,-0.51 -0.681,-1.219 -0.709,-2.126 z"
           style="fill:#000000;fill-opacity:1;fill-rule:evenodd;stroke:none"
           id="path212" /><path
           d="m 294.236,353.253 c -0.51,-0.142 -1.049,-0.199 -1.587,-0.199 -1.276,0 -1.899,0.709 -1.928,2.155 l -0.085,6.349 h -1.077 l -0.028,1.162 h 1.162 l 0.453,2.126 h 1.049 l 0.029,-2.126 h 1.757 v -1.162 h -1.757 l 0.085,-6.009 c 0,-0.454 0.085,-0.766 0.226,-0.964 0.142,-0.17 0.426,-0.283 0.794,-0.283 0.199,0 0.51,0.056 0.907,0.141 z"
           style="fill:#000000;fill-opacity:1;fill-rule:evenodd;stroke:none"
           id="path214" /><path
           d="m 311.471,353.196 -0.085,8.277 c -0.029,0.907 0,1.786 0.028,2.636 -0.255,-1.048 -0.51,-1.87 -0.737,-2.466 l -3.09,-8.447 h -1.19 l -3.345,8.447 -0.51,1.503 -0.284,0.963 0.029,-0.963 0.056,-1.673 0.085,-8.277 h -1.474 l -0.141,12.387 h 2.182 l 3.402,-8.588 c 0.113,-0.341 0.255,-0.709 0.368,-1.106 0.114,-0.397 0.17,-0.68 0.199,-0.85 0.056,0.226 0.142,0.567 0.283,1.048 0.142,0.482 0.255,0.794 0.312,0.908 l 3.118,8.588 h 2.154 l 0.142,-12.387 z"
           style="fill:#000000;fill-opacity:1;fill-rule:evenodd;stroke:none"
           id="path216" /><path
           d="m 316.828,357.618 c 0.029,-1.077 0.255,-1.927 0.709,-2.523 0.454,-0.595 1.134,-0.878 1.984,-0.878 0.681,0 1.248,0.141 1.644,0.396 0.426,0.284 0.681,0.624 0.822,1.049 l 1.418,-0.397 c -0.567,-1.502 -1.843,-2.239 -3.855,-2.239 -1.418,0 -2.495,0.425 -3.232,1.247 -0.737,0.851 -1.134,2.098 -1.134,3.742 -0.028,1.587 0.312,2.778 1.049,3.628 0.737,0.822 1.758,1.248 3.147,1.248 2.777,0 4.195,-1.673 4.251,-5.046 v -0.227 z m 5.131,1.219 c -0.085,0.992 -0.34,1.729 -0.765,2.211 -0.425,0.454 -1.049,0.68 -1.843,0.68 -0.765,0 -1.36,-0.255 -1.814,-0.765 -0.425,-0.51 -0.68,-1.219 -0.709,-2.126 z"
           style="fill:#000000;fill-opacity:1;fill-rule:evenodd;stroke:none"
           id="path218" /><path
           d="m 332.731,355.832 c 0,-0.907 -0.312,-1.587 -0.992,-2.069 -0.681,-0.482 -1.616,-0.737 -2.835,-0.737 -1.191,0 -2.098,0.198 -2.75,0.595 -0.652,0.369 -1.077,0.992 -1.275,1.814 l 1.389,0.284 c 0.141,-0.51 0.425,-0.907 0.85,-1.134 0.425,-0.227 1.021,-0.34 1.758,-0.34 0.822,0 1.389,0.113 1.785,0.368 0.369,0.227 0.539,0.596 0.539,1.106 0,0.368 -0.142,0.68 -0.397,0.907 -0.255,0.227 -0.68,0.425 -1.275,0.567 l -1.134,0.312 c -0.907,0.227 -1.559,0.453 -1.928,0.68 -0.397,0.227 -0.709,0.51 -0.907,0.822 -0.227,0.34 -0.34,0.737 -0.34,1.191 -0.028,0.878 0.283,1.53 0.907,1.984 0.595,0.453 1.502,0.68 2.693,0.68 1.049,0 1.871,-0.17 2.494,-0.538 0.624,-0.369 1.021,-0.964 1.191,-1.786 l -1.417,-0.17 c -0.085,0.425 -0.341,0.737 -0.709,0.964 -0.397,0.226 -0.907,0.34 -1.559,0.34 -0.709,0 -1.247,-0.114 -1.588,-0.312 -0.311,-0.227 -0.481,-0.567 -0.481,-0.992 0,-0.284 0.085,-0.51 0.226,-0.681 0.142,-0.17 0.341,-0.311 0.624,-0.453 0.283,-0.114 0.85,-0.284 1.729,-0.51 0.851,-0.199 1.446,-0.397 1.814,-0.567 0.397,-0.199 0.681,-0.397 0.907,-0.596 0.199,-0.226 0.369,-0.481 0.482,-0.765 0.142,-0.283 0.199,-0.595 0.199,-0.964 z"
           style="fill:#000000;fill-opacity:1;fill-rule:evenodd;stroke:none"
           id="path220" /><path
           d="m 336.132,361.076 c 0.312,0.596 0.737,1.078 1.191,1.361 0.482,0.283 1.077,0.425 1.814,0.425 1.049,0 1.786,-0.255 2.296,-0.765 0.482,-0.51 0.737,-1.361 0.765,-2.58 l 0.057,-6.349 h -1.587 l -0.057,6.038 c 0,0.68 -0.085,1.162 -0.198,1.502 -0.142,0.312 -0.341,0.567 -0.624,0.709 -0.283,0.141 -0.68,0.226 -1.162,0.226 -0.766,0 -1.333,-0.255 -1.786,-0.765 -0.454,-0.51 -0.652,-1.219 -0.652,-2.098 l 0.057,-5.612 h -1.559 l -0.17,13.067 h 1.587 l 0.028,-3.401 c 0.029,-0.369 0,-0.737 0,-1.106 -0.028,-0.396 -0.028,-0.595 -0.028,-0.652 z"
           style="fill:#000000;fill-opacity:1;fill-rule:evenodd;stroke:none"
           id="path222" /><path
           d="m 253.417,333.042 -0.141,12.387 h 1.672 l 0.142,-12.387 z"
           style="fill:#000000;fill-opacity:1;fill-rule:evenodd;stroke:none"
           id="path224" /><path
           d="m 264.047,333.042 -0.056,6.038 c 0,0.623 -0.085,1.105 -0.199,1.445 -0.142,0.369 -0.34,0.595 -0.595,0.766 -0.284,0.141 -0.68,0.226 -1.191,0.226 -0.765,0 -1.36,-0.255 -1.786,-0.793 -0.453,-0.511 -0.651,-1.248 -0.651,-2.155 l 0.056,-5.527 h -1.559 l -0.085,7.483 c -0.028,1.106 -0.057,1.786 -0.085,2.041 h 1.502 c 0,-0.028 0,-0.113 0,-0.255 0.029,-0.113 0.029,-0.255 0.029,-0.425 0.028,-0.17 0.028,-0.482 0.056,-0.964 h 0.029 c 0.34,0.68 0.765,1.134 1.247,1.417 0.454,0.256 1.049,0.397 1.758,0.397 1.048,0 1.814,-0.255 2.296,-0.765 0.51,-0.539 0.737,-1.389 0.765,-2.58 l 0.057,-6.349 z"
           style="fill:#000000;fill-opacity:1;fill-rule:evenodd;stroke:none"
           id="path226" /><path
           d="m 275.074,335.678 c 0,-0.907 -0.312,-1.587 -0.992,-2.069 -0.68,-0.482 -1.616,-0.737 -2.835,-0.737 -1.19,0 -2.097,0.198 -2.749,0.595 -0.652,0.368 -1.078,0.992 -1.276,1.814 l 1.389,0.284 c 0.142,-0.511 0.425,-0.907 0.85,-1.134 0.426,-0.227 1.021,-0.34 1.786,-0.34 0.794,0 1.389,0.113 1.758,0.368 0.368,0.227 0.538,0.595 0.538,1.106 0,0.368 -0.141,0.68 -0.397,0.907 -0.255,0.226 -0.68,0.425 -1.247,0.567 l -1.162,0.311 c -0.907,0.227 -1.559,0.454 -1.928,0.681 -0.396,0.227 -0.708,0.51 -0.907,0.822 -0.226,0.34 -0.34,0.737 -0.34,1.19 -0.028,0.879 0.284,1.531 0.907,1.985 0.596,0.453 1.503,0.68 2.693,0.68 1.049,0 1.871,-0.17 2.495,-0.539 0.623,-0.368 1.02,-0.963 1.19,-1.786 l -1.417,-0.17 c -0.085,0.426 -0.34,0.737 -0.709,0.964 -0.397,0.227 -0.907,0.34 -1.559,0.34 -0.708,0 -1.247,-0.113 -1.559,-0.311 -0.34,-0.227 -0.51,-0.567 -0.51,-0.993 0,-0.283 0.085,-0.51 0.227,-0.68 0.141,-0.17 0.34,-0.312 0.623,-0.453 0.284,-0.114 0.851,-0.284 1.729,-0.511 0.851,-0.198 1.446,-0.397 1.843,-0.567 0.368,-0.198 0.652,-0.396 0.879,-0.595 0.198,-0.227 0.368,-0.482 0.482,-0.765 0.141,-0.284 0.198,-0.596 0.198,-0.964 z"
           style="fill:#000000;fill-opacity:1;fill-rule:evenodd;stroke:none"
           id="path228" /><path
           d="m 280.602,333.098 c -0.511,-0.141 -1.049,-0.198 -1.588,-0.198 -1.275,0 -1.899,0.709 -1.927,2.154 l -0.057,6.35 h -1.106 l -0.028,1.162 h 1.162 l 0.454,2.126 h 1.049 l 0.028,-2.126 h 1.757 v -1.162 h -1.757 l 0.085,-6.009 c 0,-0.454 0.085,-0.766 0.227,-0.964 0.142,-0.17 0.425,-0.284 0.793,-0.284 0.199,0 0.511,0.057 0.908,0.142 z"
           style="fill:#000000;fill-opacity:1;fill-rule:evenodd;stroke:none"
           id="path230" /><path
           d="m 284.428,332.872 c -0.963,0 -1.672,0.255 -2.154,0.765 -0.482,0.482 -0.737,1.191 -0.765,2.069 0,0.992 0.311,1.729 0.963,2.268 0.624,0.51 1.673,0.794 3.119,0.85 l 2.126,0.029 v 0.51 c 0,0.765 -0.171,1.332 -0.511,1.672 -0.34,0.341 -0.85,0.482 -1.559,0.482 -0.708,0 -1.219,-0.113 -1.53,-0.34 -0.312,-0.255 -0.511,-0.623 -0.567,-1.162 l -1.644,0.142 c 0.226,1.729 1.502,2.579 3.77,2.579 1.19,0 2.097,-0.283 2.721,-0.822 0.595,-0.538 0.907,-1.332 0.907,-2.381 l 0.057,-4.11 c 0,-0.454 0.085,-0.822 0.198,-1.049 0.113,-0.227 0.369,-0.34 0.709,-0.34 0.141,0 0.312,0 0.51,0.057 l 0.028,-0.993 c -0.397,-0.085 -0.822,-0.141 -1.219,-0.141 -0.595,0 -1.02,0.141 -1.304,0.453 -0.255,0.312 -0.425,0.794 -0.453,1.446 h -0.057 c -0.397,-0.709 -0.85,-1.219 -1.389,-1.531 -0.538,-0.312 -1.19,-0.453 -1.956,-0.453 z m 0.341,1.19 c 0.595,0 1.105,0.142 1.559,0.397 0.425,0.255 0.793,0.624 1.048,1.077 0.255,0.454 0.369,0.936 0.369,1.418 v 0.793 l -1.729,-0.028 c -0.766,-0.028 -1.304,-0.113 -1.701,-0.227 -0.369,-0.142 -0.68,-0.368 -0.879,-0.652 -0.198,-0.312 -0.283,-0.68 -0.283,-1.162 0,-0.51 0.141,-0.907 0.425,-1.191 0.283,-0.283 0.68,-0.425 1.191,-0.425 z"
           style="fill:#000000;fill-opacity:1;fill-rule:evenodd;stroke:none"
           id="path232" /><path
           d="m 298.006,333.042 -0.056,6.038 c 0,0.623 -0.085,1.105 -0.199,1.445 -0.142,0.369 -0.34,0.595 -0.595,0.766 -0.284,0.141 -0.68,0.226 -1.191,0.226 -0.765,0 -1.36,-0.255 -1.785,-0.793 -0.454,-0.511 -0.652,-1.248 -0.652,-2.155 l 0.056,-5.527 h -1.559 l -0.085,7.483 c -0.028,1.106 -0.057,1.786 -0.085,2.041 h 1.502 c 0,-0.028 0,-0.113 0,-0.255 0.029,-0.113 0.029,-0.255 0.029,-0.425 0.028,-0.17 0.028,-0.482 0.057,-0.964 h 0.028 c 0.34,0.68 0.765,1.134 1.247,1.417 0.454,0.256 1.049,0.397 1.758,0.397 1.048,0 1.814,-0.255 2.296,-0.765 0.51,-0.539 0.737,-1.389 0.765,-2.58 l 0.057,-6.349 z"
           style="fill:#000000;fill-opacity:1;fill-rule:evenodd;stroke:none"
           id="path234" /><path
           d="m 303.08,337.861 c 0,-1.276 0.227,-2.211 0.624,-2.835 0.397,-0.595 1.02,-0.907 1.814,-0.907 0.567,0 1.021,0.142 1.417,0.453 0.369,0.312 0.596,0.766 0.681,1.418 l 1.587,-0.114 c -0.113,-0.907 -0.482,-1.644 -1.134,-2.182 -0.652,-0.539 -1.474,-0.822 -2.494,-0.822 -1.332,0 -2.353,0.425 -3.062,1.247 -0.708,0.85 -1.077,2.069 -1.077,3.685 -0.028,1.616 0.312,2.835 0.992,3.657 0.709,0.85 1.701,1.275 3.005,1.275 0.992,0 1.786,-0.255 2.438,-0.765 0.652,-0.482 1.077,-1.191 1.247,-2.069 l -1.644,-0.142 c -0.085,0.538 -0.283,0.964 -0.624,1.275 -0.34,0.312 -0.822,0.454 -1.445,0.454 -0.822,0 -1.418,-0.283 -1.786,-0.822 -0.369,-0.567 -0.567,-1.502 -0.539,-2.806 z"
           style="fill:#000000;fill-opacity:1;fill-rule:evenodd;stroke:none"
           id="path236" /><path
           d="m 312.094,337.464 c 0.029,-1.077 0.256,-1.928 0.709,-2.523 0.454,-0.595 1.134,-0.879 1.984,-0.879 0.709,0 1.248,0.142 1.644,0.397 0.426,0.284 0.681,0.624 0.823,1.049 l 1.417,-0.397 c -0.567,-1.502 -1.843,-2.239 -3.855,-2.239 -1.418,0 -2.495,0.425 -3.232,1.247 -0.737,0.85 -1.134,2.098 -1.134,3.742 -0.028,1.587 0.312,2.778 1.049,3.628 0.737,0.822 1.786,1.247 3.147,1.247 2.778,0 4.195,-1.672 4.252,-5.045 v -0.227 z m 5.16,1.219 c -0.114,0.992 -0.369,1.729 -0.794,2.211 -0.425,0.453 -1.049,0.68 -1.843,0.68 -0.765,0 -1.36,-0.255 -1.814,-0.765 -0.425,-0.511 -0.68,-1.219 -0.709,-2.126 z"
           style="fill:#000000;fill-opacity:1;fill-rule:evenodd;stroke:none"
           id="path238" /><g
           id="g240"><text
             transform="matrix(1,0,0,-1,304.696,467.687)"
             style="font-variant:normal;font-weight:normal;font-size:18px;font-family:'Liberation Sans';-inkscape-font-specification:LiberationSans;writing-mode:lr-tb;fill:#000000;fill-opacity:1;fill-rule:nonzero;stroke:none"
             id="text244"><tspan
               x="0 11.988 23.976"
               y="0"
               id="tspan242">SPI</tspan></text></g><path
           d="m 177.165,253.7 h -49.606 v 49.606 h 99.213 V 253.7 Z"
           style="fill:#729fcf;fill-opacity:1;fill-rule:evenodd;stroke:none"
           id="path246" /><g
           id="g248"><path
             d="m 177.165,253.7 h -49.606 v 49.606 h 99.213 V 253.7 Z"
             style="fill:none;stroke:#3465a4;stroke-width:0.75;stroke-linecap:butt;stroke-linejoin:round;stroke-miterlimit:10;stroke-dasharray:none;stroke-opacity:1"
             id="path250" /></g><g
           id="g252"><text
             transform="matrix(1,0,0,-1,155.707,282.302)"
             style="font-variant:normal;font-weight:normal;font-size:18px;font-family:'Liberation Sans';-inkscape-font-specification:LiberationSans;writing-mode:lr-tb;fill:#000000;fill-opacity:1;fill-rule:nonzero;stroke:none"
             id="text256"><tspan
               x="0 12.906 24.983999 37.889999"
               y="0"
               id="tspan254">CAN </tspan></text></g><g
           id="g258"><text
             transform="matrix(1,0,0,-1,138.699,262.176)"
             style="font-variant:normal;font-weight:normal;font-size:18px;font-family:'Liberation Sans';-inkscape-font-specification:LiberationSans;writing-mode:lr-tb;fill:#000000;fill-opacity:1;fill-rule:nonzero;stroke:none"
             id="text262"><tspan
               x="0 12.996 22.896 28.889999 38.897999 43.883999 55.872002 65.879997 71.874001"
               y="0"
               id="tspan260">Hard Port</tspan></text></g><path
           d="m 290.551,253.7 h -49.606 v 49.606 h 99.212 V 253.7 Z"
           style="fill:#729fcf;fill-opacity:1;fill-rule:evenodd;stroke:none"
           id="path264" /><g
           id="g266"><path
             d="m 290.551,253.7 h -49.606 v 49.606 h 99.212 V 253.7 Z"
             style="fill:none;stroke:#3465a4;stroke-width:0.75;stroke-linecap:butt;stroke-linejoin:round;stroke-miterlimit:10;stroke-dasharray:none;stroke-opacity:1"
             id="path268" /></g><g
           id="g270"><text
             transform="matrix(1,0,0,-1,260.589,282.302)"
             style="font-variant:normal;font-weight:normal;font-size:18px;font-family:'Liberation Sans';-inkscape-font-specification:LiberationSans;writing-mode:lr-tb;fill:#000000;fill-opacity:1;fill-rule:nonzero;stroke:none"
             id="text274"><tspan
               x="0 12.996 24.983999 34.883999 44.891998 54.900002"
               y="0"
               id="tspan272">RS485 </tspan></text></g><g
           id="g276"><text
             transform="matrix(1,0,0,-1,252.113,262.176)"
             style="font-variant:normal;font-weight:normal;font-size:18px;font-family:'Liberation Sans';-inkscape-font-specification:LiberationSans;writing-mode:lr-tb;fill:#000000;fill-opacity:1;fill-rule:nonzero;stroke:none"
             id="text280"><tspan
               x="0 12.906 22.914 28.908001 38.916 43.902 55.889999 65.898003 71.891998"
               y="0"
               id="tspan278">Hard Port</tspan></text></g><path
           d="m 396.85,253.7 h -49.606 v 49.606 h 99.213 V 253.7 Z"
           style="fill:#729fcf;fill-opacity:1;fill-rule:evenodd;stroke:none"
           id="path282" /><g
           id="g284"><path
             d="m 396.85,253.7 h -49.606 v 49.606 h 99.213 V 253.7 Z"
             style="fill:none;stroke:#3465a4;stroke-width:0.75;stroke-linecap:butt;stroke-linejoin:round;stroke-miterlimit:10;stroke-dasharray:none;stroke-opacity:1"
             id="path286" /></g><g
           id="g288"><text
             transform="matrix(1,0,0,-1,366.888,282.302)"
             style="font-variant:normal;font-weight:normal;font-size:18px;font-family:'Liberation Sans';-inkscape-font-specification:LiberationSans;writing-mode:lr-tb;fill:#000000;fill-opacity:1;fill-rule:nonzero;stroke:none"
             id="text292"><tspan
               x="0 12.996 24.983999 34.883999 44.891998 54.900002"
               y="0"
               id="tspan290">RS232 </tspan></text></g><g
           id="g294"><text
             transform="matrix(1,0,0,-1,358.413,262.176)"
             style="font-variant:normal;font-weight:normal;font-size:18px;font-family:'Liberation Sans';-inkscape-font-specification:LiberationSans;writing-mode:lr-tb;fill:#000000;fill-opacity:1;fill-rule:nonzero;stroke:none"
             id="text298"><tspan
               x="0 12.906 22.914 28.908001 38.916 43.902 55.889999 65.898003 71.891998"
               y="0"
               id="tspan296">Hard Port</tspan></text></g><path
           d="m 389.934,196.979 -14.202,11.225 7.087,0.028 -0.113,34.129 -7.087,-0.028 14.145,11.367 14.23,-11.254 -7.115,-0.028 0.113,-34.129 7.115,0.028 z"
           style="fill:#ea7500;fill-opacity:1;fill-rule:evenodd;stroke:none"
           id="path300" /><g
           id="g302"><path
             d="m 389.934,196.979 -14.202,11.225 7.087,0.028 -0.113,34.129 -7.087,-0.028 14.145,11.367 14.23,-11.254 -7.115,-0.028 0.113,-34.129 7.115,0.028 z"
             style="fill:none;stroke:#3465a4;stroke-width:0.75;stroke-linecap:butt;stroke-linejoin:round;stroke-miterlimit:10;stroke-dasharray:none;stroke-opacity:1"
             id="path304" /></g><path
           d="m 290.551,196.979 -14.201,11.225 7.086,0.028 -0.113,34.129 -7.087,-0.028 14.145,11.367 14.23,-11.254 -7.115,-0.028 0.113,-34.129 7.115,0.028 z"
           style="fill:#ea7500;fill-opacity:1;fill-rule:evenodd;stroke:none"
           id="path306" /><g
           id="g308"><path
             d="m 290.551,196.979 -14.201,11.225 7.086,0.028 -0.113,34.129 -7.087,-0.028 14.145,11.367 14.23,-11.254 -7.115,-0.028 0.113,-34.129 7.115,0.028 z"
             style="fill:none;stroke:#3465a4;stroke-width:0.75;stroke-linecap:butt;stroke-linejoin:round;stroke-miterlimit:10;stroke-dasharray:none;stroke-opacity:1"
             id="path310" /></g><path
           d="m 184.422,196.979 -14.202,11.225 7.087,0.028 -0.113,34.129 -7.087,-0.028 14.145,11.367 14.23,-11.254 -7.115,-0.028 0.113,-34.129 7.115,0.028 z"
           style="fill:#ea7500;fill-opacity:1;fill-rule:evenodd;stroke:none"
           id="path312" /><g
           id="g314"><path
             d="m 184.422,196.979 -14.202,11.225 7.087,0.028 -0.113,34.129 -7.087,-0.028 14.145,11.367 14.23,-11.254 -7.115,-0.028 0.113,-34.129 7.115,0.028 z"
             style="fill:none;stroke:#3465a4;stroke-width:0.75;stroke-linecap:butt;stroke-linejoin:round;stroke-miterlimit:10;stroke-dasharray:none;stroke-opacity:1"
             id="path316" /></g><path
           d="m 262.658,136.743 c 0.085,-6.832 -3.118,-13.55 -9.269,-19.474 -6.151,-5.925 -15.052,-10.857 -25.795,-14.287 -10.715,-3.402 -22.933,-5.216 -35.377,-5.216 -12.444,0 -24.689,1.814 -35.489,5.216 -10.829,3.43 -19.815,8.362 -26.108,14.287 -6.292,5.924 -9.637,12.642 -9.722,19.474 -0.085,6.859 3.118,13.577 9.269,19.502 6.151,5.924 15.052,10.857 25.795,14.287 10.715,3.401 22.932,5.215 35.377,5.215 12.444,0 24.689,-1.814 35.489,-5.215 10.829,-3.43 19.815,-8.363 26.107,-14.287 6.293,-5.925 9.638,-12.643 9.723,-19.502 z"
           style="fill:#ff972f;fill-opacity:1;fill-rule:evenodd;stroke:none"
           id="path318" /><g
           id="g320"><path
             d="m 262.658,136.743 c 0.085,-6.832 -3.118,-13.55 -9.269,-19.474 -6.151,-5.925 -15.052,-10.857 -25.795,-14.287 -10.715,-3.402 -22.933,-5.216 -35.377,-5.216 -12.444,0 -24.689,1.814 -35.489,5.216 -10.829,3.43 -19.815,8.362 -26.108,14.287 -6.292,5.924 -9.637,12.642 -9.722,19.474 -0.085,6.859 3.118,13.577 9.269,19.502 6.151,5.924 15.052,10.857 25.795,14.287 10.715,3.401 22.932,5.215 35.377,5.215 12.444,0 24.689,-1.814 35.489,-5.215 10.829,-3.43 19.815,-8.363 26.107,-14.287 6.293,-5.925 9.638,-12.643 9.723,-19.502 z"
             style="fill:none;stroke:#3465a4;stroke-width:0.75;stroke-linecap:butt;stroke-linejoin:round;stroke-miterlimit:10;stroke-dasharray:none;stroke-opacity:1"
             id="path322" /></g><path
           d="m 137.48,151.624 0.142,-11.026 h -1.672 l -0.142,11.026 h -4.252 v 1.361 h 10.176 v -1.361 z"
           style="fill:#000000;fill-opacity:1;fill-rule:evenodd;stroke:none"
           id="path324" /><path
           d="m 145.02,148.478 c 0.312,0.595 0.737,1.077 1.191,1.361 0.482,0.283 1.077,0.425 1.814,0.425 1.049,0 1.786,-0.255 2.296,-0.766 0.482,-0.51 0.737,-1.36 0.766,-2.579 l 0.056,-6.35 h -1.587 l -0.057,6.038 c 0,0.68 -0.085,1.162 -0.198,1.502 -0.142,0.312 -0.34,0.567 -0.624,0.709 -0.283,0.142 -0.68,0.227 -1.162,0.227 -0.765,0 -1.332,-0.255 -1.786,-0.765 -0.453,-0.511 -0.652,-1.219 -0.652,-2.098 l 0.057,-5.613 h -1.559 l -0.17,13.068 h 1.587 l 0.028,-3.402 c 0.029,-0.368 0,-0.737 0,-1.105 -0.028,-0.397 -0.028,-0.595 -0.028,-0.652 z"
           style="fill:#000000;fill-opacity:1;fill-rule:evenodd;stroke:none"
           id="path326" /><path
           d="m 153.354,152.135 v 1.502 h 1.588 v -1.502 z m 0.142,-11.566 -0.113,9.525 h 1.587 l 0.113,-9.525 z"
           style="fill:#000000;fill-opacity:1;fill-rule:evenodd;stroke:none"
           id="path328" /><path
           d="m 163.502,140.598 -0.056,6.037 c 0,0.624 -0.085,1.106 -0.199,1.446 -0.141,0.369 -0.34,0.595 -0.595,0.765 -0.283,0.142 -0.68,0.227 -1.191,0.227 -0.765,0 -1.36,-0.255 -1.814,-0.793 -0.425,-0.511 -0.623,-1.248 -0.623,-2.155 l 0.056,-5.527 h -1.587 l -0.057,7.483 c -0.028,1.106 -0.056,1.786 -0.085,2.041 h 1.503 c 0,-0.028 0,-0.113 0,-0.255 0.028,-0.113 0.028,-0.255 0.028,-0.425 0.028,-0.17 0.028,-0.482 0.057,-0.964 h 0.028 c 0.34,0.68 0.765,1.134 1.247,1.417 0.454,0.255 1.049,0.397 1.758,0.397 1.048,0 1.814,-0.255 2.296,-0.765 0.482,-0.539 0.737,-1.389 0.765,-2.58 l 0.057,-6.349 z"
           style="fill:#000000;fill-opacity:1;fill-rule:evenodd;stroke:none"
           id="path330" /><path
           d="m 171.071,136.856 c -1.049,0 -1.871,0.198 -2.495,0.624 -0.623,0.396 -1.02,0.963 -1.19,1.729 l 1.587,0.226 c 0.114,-0.425 0.34,-0.765 0.709,-1.02 0.368,-0.227 0.822,-0.34 1.417,-0.34 1.588,0 2.353,0.907 2.325,2.749 v 1.559 h -0.029 c -0.283,-0.623 -0.708,-1.077 -1.219,-1.388 -0.51,-0.312 -1.133,-0.454 -1.814,-0.454 -1.162,0 -2.041,0.368 -2.579,1.162 -0.567,0.766 -0.851,1.984 -0.879,3.629 0,1.7 0.255,2.919 0.85,3.741 0.567,0.794 1.474,1.191 2.665,1.191 0.68,0 1.275,-0.142 1.757,-0.454 0.511,-0.312 0.879,-0.765 1.163,-1.332 h 0.028 c 0,0.198 0,0.482 0.028,0.935 0,0.426 0.029,0.652 0.057,0.709 h 1.502 c -0.028,-0.312 -0.056,-0.992 -0.028,-1.984 l 0.085,-7.257 c 0.028,-2.693 -1.276,-4.025 -3.94,-4.025 z m 2.296,8.504 c 0,0.765 -0.113,1.446 -0.34,1.984 -0.199,0.567 -0.51,0.992 -0.907,1.304 -0.369,0.284 -0.822,0.425 -1.304,0.425 -0.794,0 -1.389,-0.283 -1.758,-0.878 -0.34,-0.567 -0.538,-1.531 -0.51,-2.835 0,-1.304 0.198,-2.24 0.539,-2.806 0.368,-0.567 0.963,-0.851 1.785,-0.851 0.511,0 0.936,0.142 1.333,0.425 0.368,0.312 0.68,0.737 0.878,1.276 0.199,0.539 0.312,1.191 0.284,1.956 z"
           style="fill:#000000;fill-opacity:1;fill-rule:evenodd;stroke:none"
           id="path332" /><path
           d="m 187.285,144.028 c 0.028,-1.134 -0.397,-2.041 -1.304,-2.665 -0.879,-0.624 -2.126,-0.935 -3.77,-0.935 -3.005,0 -4.762,1.048 -5.272,3.146 l 1.615,0.34 c 0.199,-0.765 0.624,-1.304 1.219,-1.644 0.624,-0.368 1.446,-0.538 2.495,-0.538 1.077,0 1.927,0.198 2.494,0.566 0.595,0.369 0.879,0.908 0.879,1.645 0,0.396 -0.113,0.737 -0.284,0.992 -0.198,0.226 -0.453,0.453 -0.793,0.623 -0.34,0.142 -0.737,0.284 -1.191,0.397 -0.482,0.114 -0.992,0.227 -1.559,0.369 -0.964,0.226 -1.729,0.425 -2.239,0.652 -0.482,0.226 -0.907,0.453 -1.191,0.708 -0.312,0.284 -0.538,0.596 -0.68,0.964 -0.17,0.34 -0.255,0.765 -0.255,1.219 0,1.049 0.397,1.871 1.19,2.466 0.794,0.567 1.956,0.85 3.487,0.85 1.389,0 2.466,-0.226 3.231,-0.651 0.737,-0.426 1.276,-1.163 1.588,-2.212 l -1.644,-0.283 c -0.199,0.652 -0.539,1.134 -1.077,1.446 -0.511,0.283 -1.219,0.425 -2.098,0.425 -0.992,0 -1.757,-0.17 -2.268,-0.482 -0.538,-0.34 -0.793,-0.822 -0.765,-1.474 0,-0.369 0.113,-0.68 0.312,-0.935 0.198,-0.256 0.482,-0.482 0.878,-0.652 0.369,-0.17 1.134,-0.369 2.268,-0.624 0.397,-0.085 0.766,-0.17 1.162,-0.283 0.369,-0.086 0.737,-0.199 1.078,-0.312 0.34,-0.142 0.68,-0.284 0.992,-0.454 0.283,-0.17 0.567,-0.368 0.793,-0.623 0.227,-0.227 0.397,-0.539 0.511,-0.851 0.141,-0.34 0.198,-0.737 0.198,-1.19 z"
           style="fill:#000000;fill-opacity:1;fill-rule:evenodd;stroke:none"
           id="path334" /><path
           d="m 190.545,145.02 c 0.028,-1.077 0.255,-1.928 0.709,-2.523 0.453,-0.595 1.133,-0.879 1.984,-0.879 0.68,0 1.247,0.142 1.644,0.397 0.425,0.283 0.68,0.624 0.822,1.049 l 1.417,-0.397 c -0.567,-1.502 -1.842,-2.239 -3.855,-2.239 -1.417,0 -2.494,0.425 -3.231,1.247 -0.737,0.85 -1.134,2.097 -1.134,3.742 -0.029,1.587 0.312,2.778 1.049,3.628 0.737,0.822 1.757,1.247 3.146,1.247 2.778,0 4.195,-1.672 4.252,-5.046 v -0.226 z m 5.131,1.219 c -0.085,0.992 -0.341,1.729 -0.766,2.211 -0.425,0.453 -1.049,0.68 -1.842,0.68 -0.766,0 -1.361,-0.255 -1.814,-0.765 -0.426,-0.511 -0.681,-1.219 -0.709,-2.126 z"
           style="fill:#000000;fill-opacity:1;fill-rule:evenodd;stroke:none"
           id="path336" /><path
           d="m 202.989,140.654 c -0.51,-0.141 -1.049,-0.198 -1.587,-0.198 -1.276,0 -1.9,0.709 -1.928,2.154 l -0.085,6.35 h -1.077 l -0.029,1.162 h 1.163 l 0.453,2.126 h 1.049 l 0.028,-2.126 h 1.758 v -1.162 h -1.758 l 0.085,-6.01 c 0,-0.453 0.085,-0.765 0.227,-0.963 0.142,-0.17 0.425,-0.284 0.794,-0.284 0.198,0 0.51,0.057 0.907,0.142 z"
           style="fill:#000000;fill-opacity:1;fill-rule:evenodd;stroke:none"
           id="path338" /><path
           d="m 220.224,140.598 -0.085,8.277 c -0.029,0.907 0,1.786 0.028,2.636 -0.255,-1.049 -0.51,-1.871 -0.737,-2.466 l -3.09,-8.447 h -1.19 l -3.345,8.447 -0.511,1.502 -0.283,0.964 0.028,-0.964 0.057,-1.672 0.085,-8.277 h -1.474 l -0.142,12.387 h 2.183 l 3.402,-8.589 c 0.113,-0.34 0.255,-0.709 0.368,-1.105 0.113,-0.397 0.17,-0.681 0.199,-0.851 0.056,0.227 0.141,0.567 0.283,1.049 0.142,0.482 0.255,0.794 0.312,0.907 l 3.118,8.589 h 2.154 l 0.142,-12.387 z"
           style="fill:#000000;fill-opacity:1;fill-rule:evenodd;stroke:none"
           id="path340" /><path
           d="m 225.581,145.02 c 0.028,-1.077 0.255,-1.928 0.709,-2.523 0.453,-0.595 1.134,-0.879 1.984,-0.879 0.68,0 1.247,0.142 1.644,0.397 0.425,0.283 0.68,0.624 0.822,1.049 l 1.417,-0.397 c -0.566,-1.502 -1.842,-2.239 -3.855,-2.239 -1.417,0 -2.494,0.425 -3.231,1.247 -0.737,0.85 -1.134,2.097 -1.134,3.742 -0.028,1.587 0.312,2.778 1.049,3.628 0.737,0.822 1.757,1.247 3.146,1.247 2.778,0 4.196,-1.672 4.252,-5.046 v -0.226 z m 5.131,1.219 c -0.085,0.992 -0.34,1.729 -0.766,2.211 -0.425,0.453 -1.048,0.68 -1.842,0.68 -0.765,0 -1.361,-0.255 -1.814,-0.765 -0.425,-0.511 -0.681,-1.219 -0.709,-2.126 z"
           style="fill:#000000;fill-opacity:1;fill-rule:evenodd;stroke:none"
           id="path342" /><path
           d="m 241.483,143.234 c 0,-0.907 -0.311,-1.588 -0.992,-2.069 -0.68,-0.482 -1.615,-0.737 -2.834,-0.737 -1.191,0 -2.098,0.198 -2.75,0.595 -0.652,0.368 -1.077,0.992 -1.276,1.814 l 1.389,0.283 c 0.142,-0.51 0.426,-0.907 0.851,-1.133 0.425,-0.227 1.02,-0.341 1.757,-0.341 0.822,0 1.389,0.114 1.786,0.369 0.369,0.227 0.539,0.595 0.539,1.105 0,0.369 -0.142,0.681 -0.397,0.908 -0.255,0.226 -0.68,0.425 -1.276,0.567 l -1.134,0.311 c -0.907,0.227 -1.559,0.454 -1.927,0.681 -0.397,0.226 -0.709,0.51 -0.907,0.822 -0.227,0.34 -0.34,0.737 -0.34,1.19 -0.029,0.879 0.283,1.531 0.907,1.984 0.595,0.454 1.502,0.681 2.693,0.681 1.048,0 1.871,-0.17 2.494,-0.539 0.624,-0.368 1.021,-0.964 1.191,-1.786 l -1.418,-0.17 c -0.085,0.426 -0.34,0.737 -0.708,0.964 -0.397,0.227 -0.907,0.34 -1.559,0.34 -0.709,0 -1.248,-0.113 -1.588,-0.312 -0.312,-0.226 -0.482,-0.566 -0.482,-0.992 0,-0.283 0.085,-0.51 0.227,-0.68 0.142,-0.17 0.34,-0.312 0.624,-0.454 0.283,-0.113 0.85,-0.283 1.729,-0.51 0.85,-0.198 1.446,-0.397 1.814,-0.567 0.397,-0.198 0.68,-0.397 0.907,-0.595 0.199,-0.227 0.369,-0.482 0.482,-0.765 0.142,-0.284 0.198,-0.596 0.198,-0.964 z"
           style="fill:#000000;fill-opacity:1;fill-rule:evenodd;stroke:none"
           id="path344" /><path
           d="m 244.885,148.478 c 0.312,0.595 0.737,1.077 1.191,1.361 0.481,0.283 1.077,0.425 1.814,0.425 1.049,0 1.786,-0.255 2.296,-0.766 0.482,-0.51 0.737,-1.36 0.765,-2.579 l 0.057,-6.35 h -1.588 l -0.056,6.038 c 0,0.68 -0.085,1.162 -0.199,1.502 -0.141,0.312 -0.34,0.567 -0.623,0.709 -0.284,0.142 -0.681,0.227 -1.162,0.227 -0.766,0 -1.333,-0.255 -1.786,-0.765 -0.454,-0.511 -0.652,-1.219 -0.652,-2.098 l 0.056,-5.613 h -1.559 l -0.17,13.068 h 1.588 l 0.028,-3.402 c 0.028,-0.368 0,-0.737 0,-1.105 -0.028,-0.397 -0.028,-0.595 -0.028,-0.652 z"
           style="fill:#000000;fill-opacity:1;fill-rule:evenodd;stroke:none"
           id="path346" /><path
           d="m 162.17,120.443 -0.142,12.388 h 1.673 l 0.142,-12.388 z"
           style="fill:#000000;fill-opacity:1;fill-rule:evenodd;stroke:none"
           id="path348" /><path
           d="m 172.8,120.443 -0.057,6.038 c 0,0.624 -0.085,1.106 -0.198,1.446 -0.142,0.368 -0.34,0.595 -0.595,0.765 -0.284,0.142 -0.681,0.227 -1.191,0.227 -0.765,0 -1.361,-0.255 -1.786,-0.794 -0.453,-0.51 -0.652,-1.247 -0.652,-2.154 l 0.057,-5.528 h -1.559 l -0.085,7.484 c -0.028,1.105 -0.057,1.786 -0.085,2.041 h 1.502 c 0,-0.029 0,-0.114 0,-0.255 0.029,-0.114 0.029,-0.255 0.029,-0.426 0.028,-0.17 0.028,-0.481 0.056,-0.963 h 0.029 c 0.34,0.68 0.765,1.134 1.247,1.417 0.453,0.255 1.049,0.397 1.757,0.397 1.049,0 1.814,-0.255 2.296,-0.766 0.511,-0.538 0.737,-1.389 0.766,-2.579 l 0.056,-6.35 z"
           style="fill:#000000;fill-opacity:1;fill-rule:evenodd;stroke:none"
           id="path350" /><path
           d="m 183.827,123.08 c 0,-0.908 -0.312,-1.588 -0.992,-2.07 -0.681,-0.482 -1.616,-0.737 -2.835,-0.737 -1.191,0 -2.098,0.199 -2.75,0.596 -0.652,0.368 -1.077,0.992 -1.275,1.814 l 1.389,0.283 c 0.142,-0.51 0.425,-0.907 0.85,-1.134 0.425,-0.226 1.021,-0.34 1.786,-0.34 0.794,0 1.389,0.114 1.757,0.369 0.369,0.226 0.539,0.595 0.539,1.105 0,0.369 -0.142,0.68 -0.397,0.907 -0.255,0.227 -0.68,0.425 -1.247,0.567 l -1.162,0.312 c -0.907,0.227 -1.559,0.454 -1.928,0.68 -0.397,0.227 -0.708,0.511 -0.907,0.822 -0.227,0.341 -0.34,0.737 -0.34,1.191 -0.028,0.879 0.283,1.531 0.907,1.984 0.595,0.454 1.502,0.68 2.693,0.68 1.049,0 1.871,-0.17 2.494,-0.538 0.624,-0.369 1.021,-0.964 1.191,-1.786 l -1.417,-0.17 c -0.085,0.425 -0.34,0.737 -0.709,0.964 -0.397,0.227 -0.907,0.34 -1.559,0.34 -0.709,0 -1.247,-0.113 -1.559,-0.312 -0.34,-0.227 -0.51,-0.567 -0.51,-0.992 0,-0.283 0.085,-0.51 0.226,-0.68 0.142,-0.17 0.341,-0.312 0.624,-0.454 0.284,-0.113 0.85,-0.283 1.729,-0.51 0.851,-0.199 1.446,-0.397 1.843,-0.567 0.368,-0.198 0.652,-0.397 0.878,-0.595 0.199,-0.227 0.369,-0.482 0.482,-0.766 0.142,-0.283 0.199,-0.595 0.199,-0.963 z"
           style="fill:#000000;fill-opacity:1;fill-rule:evenodd;stroke:none"
           id="path352" /><path
           d="m 189.354,120.5 c -0.51,-0.142 -1.048,-0.198 -1.587,-0.198 -1.276,0 -1.899,0.708 -1.928,2.154 l -0.056,6.35 h -1.106 l -0.028,1.162 h 1.162 l 0.454,2.126 h 1.048 l 0.029,-2.126 h 1.757 v -1.162 h -1.757 l 0.085,-6.01 c 0,-0.453 0.085,-0.765 0.227,-0.964 0.141,-0.17 0.425,-0.283 0.793,-0.283 0.199,0 0.51,0.057 0.907,0.142 z"
           style="fill:#000000;fill-opacity:1;fill-rule:evenodd;stroke:none"
           id="path354" /><path
           d="m 193.181,120.273 c -0.964,0 -1.672,0.255 -2.154,0.766 -0.482,0.481 -0.737,1.19 -0.766,2.069 0,0.992 0.312,1.729 0.964,2.268 0.624,0.51 1.673,0.793 3.118,0.85 l 2.126,0.028 v 0.511 c 0,0.765 -0.17,1.332 -0.51,1.672 -0.34,0.34 -0.85,0.482 -1.559,0.482 -0.709,0 -1.219,-0.113 -1.531,-0.34 -0.312,-0.255 -0.51,-0.624 -0.567,-1.162 l -1.644,0.141 c 0.227,1.729 1.503,2.58 3.77,2.58 1.191,0 2.098,-0.284 2.722,-0.822 0.595,-0.539 0.907,-1.333 0.907,-2.381 l 0.056,-4.111 c 0,-0.453 0.085,-0.822 0.199,-1.048 0.113,-0.227 0.368,-0.341 0.708,-0.341 0.142,0 0.312,0 0.511,0.057 l 0.028,-0.992 c -0.397,-0.085 -0.822,-0.142 -1.219,-0.142 -0.595,0 -1.02,0.142 -1.304,0.454 -0.255,0.312 -0.425,0.794 -0.453,1.446 h -0.057 c -0.397,-0.709 -0.85,-1.219 -1.389,-1.531 -0.539,-0.312 -1.191,-0.454 -1.956,-0.454 z m 0.34,1.191 c 0.596,0 1.106,0.142 1.559,0.397 0.426,0.255 0.794,0.623 1.049,1.077 0.255,0.453 0.369,0.935 0.369,1.417 v 0.794 l -1.729,-0.029 c -0.766,-0.028 -1.304,-0.113 -1.701,-0.226 -0.369,-0.142 -0.681,-0.369 -0.879,-0.652 -0.198,-0.312 -0.283,-0.681 -0.283,-1.162 0,-0.511 0.141,-0.908 0.425,-1.191 0.283,-0.283 0.68,-0.425 1.19,-0.425 z"
           style="fill:#000000;fill-opacity:1;fill-rule:evenodd;stroke:none"
           id="path356" /><path
           d="m 206.759,120.443 -0.057,6.038 c 0,0.624 -0.085,1.106 -0.198,1.446 -0.142,0.368 -0.34,0.595 -0.595,0.765 -0.284,0.142 -0.681,0.227 -1.191,0.227 -0.765,0 -1.361,-0.255 -1.786,-0.794 -0.453,-0.51 -0.652,-1.247 -0.652,-2.154 l 0.057,-5.528 h -1.559 l -0.085,7.484 c -0.028,1.105 -0.057,1.786 -0.085,2.041 h 1.502 c 0,-0.029 0,-0.114 0,-0.255 0.029,-0.114 0.029,-0.255 0.029,-0.426 0.028,-0.17 0.028,-0.481 0.056,-0.963 h 0.029 c 0.34,0.68 0.765,1.134 1.247,1.417 0.453,0.255 1.049,0.397 1.757,0.397 1.049,0 1.815,-0.255 2.296,-0.766 0.511,-0.538 0.737,-1.389 0.766,-2.579 l 0.056,-6.35 z"
           style="fill:#000000;fill-opacity:1;fill-rule:evenodd;stroke:none"
           id="path358" /><path
           d="m 211.833,125.262 c 0,-1.275 0.227,-2.211 0.624,-2.834 0.397,-0.596 1.02,-0.908 1.814,-0.908 0.567,0 1.02,0.142 1.417,0.454 0.369,0.312 0.595,0.765 0.681,1.417 l 1.587,-0.113 c -0.113,-0.907 -0.482,-1.644 -1.134,-2.183 -0.652,-0.538 -1.474,-0.822 -2.494,-0.822 -1.333,0 -2.353,0.425 -3.062,1.247 -0.709,0.851 -1.077,2.07 -1.077,3.686 -0.028,1.615 0.312,2.834 0.992,3.656 0.709,0.851 1.701,1.276 3.005,1.276 0.992,0 1.786,-0.255 2.438,-0.766 0.652,-0.481 1.077,-1.19 1.247,-2.069 l -1.644,-0.142 c -0.085,0.539 -0.284,0.964 -0.624,1.276 -0.34,0.312 -0.822,0.454 -1.446,0.454 -0.822,0 -1.417,-0.284 -1.785,-0.822 -0.369,-0.567 -0.567,-1.503 -0.539,-2.807 z"
           style="fill:#000000;fill-opacity:1;fill-rule:evenodd;stroke:none"
           id="path360" /><path
           d="m 220.847,124.865 c 0.029,-1.077 0.255,-1.927 0.709,-2.522 0.453,-0.596 1.134,-0.879 1.984,-0.879 0.709,0 1.247,0.142 1.644,0.397 0.425,0.283 0.681,0.623 0.822,1.048 l 1.418,-0.396 c -0.567,-1.503 -1.843,-2.24 -3.855,-2.24 -1.418,0 -2.495,0.425 -3.232,1.247 -0.737,0.851 -1.134,2.098 -1.134,3.742 -0.028,1.588 0.312,2.778 1.049,3.629 0.737,0.822 1.786,1.247 3.146,1.247 2.778,0 4.196,-1.673 4.252,-5.046 v -0.227 z m 5.159,1.219 c -0.113,0.992 -0.368,1.729 -0.793,2.211 -0.426,0.454 -1.049,0.681 -1.843,0.681 -0.765,0 -1.361,-0.256 -1.814,-0.766 -0.425,-0.51 -0.68,-1.219 -0.709,-2.126 z"
           style="fill:#000000;fill-opacity:1;fill-rule:evenodd;stroke:none"
           id="path362" /><g
           id="g364"><text
             transform="matrix(1,0,0,-1,285.506,134.588)"
             style="font-variant:normal;font-weight:normal;font-size:18px;font-family:'Liberation Sans';-inkscape-font-specification:LiberationSans;writing-mode:lr-tb;fill:#000000;fill-opacity:1;fill-rule:nonzero;stroke:none"
             id="text368"><tspan
               x="0 5.0760002 10.062"
               y="0"
               id="tspan366">...</tspan></text></g><path
           d="m 177.165,381.259 h -49.606 v 70.866 h 99.213 v -70.866 z"
           style="fill:#729fcf;fill-opacity:1;fill-rule:evenodd;stroke:none"
           id="path370" /><g
           id="g372"><path
             d="m 177.165,381.259 h -49.606 v 70.866 h 99.213 v -70.866 z"
             style="fill:none;stroke:#3465a4;stroke-width:0.75;stroke-linecap:butt;stroke-linejoin:round;stroke-miterlimit:10;stroke-dasharray:none;stroke-opacity:1"
             id="path374" /></g><g
           id="g376"><text
             transform="matrix(1,0,0,-1,168.208,410.399)"
             style="font-variant:normal;font-weight:normal;font-size:18px;font-family:'Liberation Sans';-inkscape-font-specification:LiberationSans;writing-mode:lr-tb;fill:#000000;fill-opacity:1;fill-rule:nonzero;stroke:none"
             id="text380"><tspan
               x="0 9"
               y="0"
               id="tspan378">xx</tspan></text></g><g
           id="g382"><text
             transform="matrix(1,0,0,-1,132.888,390.302)"
             style="font-variant:normal;font-weight:normal;font-size:18px;font-family:'Liberation Sans';-inkscape-font-specification:LiberationSans;writing-mode:lr-tb;fill:#000000;fill-opacity:1;fill-rule:nonzero;stroke:none"
             id="text386"><tspan
               x="0 11.592 15.588 21.582001 26.568001 36.576 46.584 50.490002 55.476002 67.463997 77.472 83.466003"
               y="0"
               id="tspan384">Virtual Port</tspan></text></g><path
           d="m 141.846,714.302 -14.202,7.001 7.087,0.029 -0.057,21.344 -7.087,-0.028 14.145,7.143 14.23,-7.03 -7.115,-0.028 0.057,-21.345 7.115,0.029 z"
           style="fill:#ea7500;fill-opacity:1;fill-rule:evenodd;stroke:none"
           id="path388" /><g
           id="g390"><path
             d="m 141.846,714.302 -14.202,7.001 7.087,0.029 -0.057,21.344 -7.087,-0.028 14.145,7.143 14.23,-7.03 -7.115,-0.028 0.057,-21.345 7.115,0.029 z"
             style="fill:none;stroke:#3465a4;stroke-width:0.75;stroke-linecap:butt;stroke-linejoin:round;stroke-miterlimit:10;stroke-dasharray:none;stroke-opacity:1"
             id="path392" /></g><path
           d="m 127.332,437.045 -11.508,-14.003 0.113,7.086 -34.129,0.567 -0.114,-7.086 -11.083,14.343 11.537,14.031 -0.113,-7.114 34.129,-0.567 0.113,7.115 z"
           style="fill:#ea7500;fill-opacity:1;fill-rule:evenodd;stroke:none"
           id="path394" /><g
           id="g396"><path
             d="m 127.332,437.045 -11.508,-14.003 0.113,7.086 -34.129,0.567 -0.114,-7.086 -11.083,14.343 11.537,14.031 -0.113,-7.114 34.129,-0.567 0.113,7.115 z"
             style="fill:none;stroke:#3465a4;stroke-width:0.75;stroke-linecap:butt;stroke-linejoin:round;stroke-miterlimit:10;stroke-dasharray:none;stroke-opacity:1"
             id="path398" /></g><path
           d="m 311.669,700.128 c 0.029,-2.466 -1.417,-4.932 -4.167,-7.086 -2.778,-2.155 -6.746,-3.94 -11.565,-5.188 -4.819,-1.247 -10.29,-1.899 -15.846,-1.899 -5.584,0 -11.055,0.652 -15.902,1.899 -4.847,1.248 -8.872,3.033 -11.679,5.188 -2.806,2.154 -4.308,4.62 -4.337,7.086 -0.028,2.495 1.418,4.961 4.167,7.115 2.778,2.155 6.747,3.94 11.566,5.188 4.818,1.247 10.289,1.899 15.845,1.899 5.584,0 11.055,-0.652 15.903,-1.899 4.847,-1.248 8.872,-3.033 11.678,-5.188 2.807,-2.154 4.309,-4.62 4.337,-7.086 z"
           style="fill:#ff972f;fill-opacity:1;fill-rule:evenodd;stroke:none"
           id="path400" /><g
           id="g402"><path
             d="m 311.669,700.128 c 0.029,-2.466 -1.417,-4.932 -4.167,-7.086 -2.778,-2.155 -6.746,-3.94 -11.565,-5.188 -4.819,-1.247 -10.29,-1.899 -15.846,-1.899 -5.584,0 -11.055,0.652 -15.902,1.899 -4.847,1.248 -8.872,3.033 -11.679,5.188 -2.806,2.154 -4.308,4.62 -4.337,7.086 -0.028,2.495 1.418,4.961 4.167,7.115 2.778,2.155 6.747,3.94 11.566,5.188 4.818,1.247 10.289,1.899 15.845,1.899 5.584,0 11.055,-0.652 15.903,-1.899 4.847,-1.248 8.872,-3.033 11.678,-5.188 2.807,-2.154 4.309,-4.62 4.337,-7.086 z"
             style="fill:none;stroke:#3465a4;stroke-width:0.75;stroke-linecap:butt;stroke-linejoin:round;stroke-miterlimit:10;stroke-dasharray:none;stroke-opacity:1"
             id="path404" /></g><path
           d="m 270.028,693.892 -0.113,8.277 c 0,0.936 0,1.814 0.057,2.665 -0.284,-1.077 -0.539,-1.899 -0.737,-2.466 l -3.118,-8.476 h -1.163 l -3.345,8.476 -0.51,1.474 -0.312,0.992 0.057,-0.992 0.028,-1.673 0.114,-8.277 h -1.503 l -0.141,12.416 h 2.211 l 3.401,-8.589 c 0.114,-0.369 0.227,-0.737 0.34,-1.134 0.114,-0.397 0.199,-0.68 0.227,-0.85 0.057,0.226 0.142,0.595 0.284,1.077 0.141,0.482 0.226,0.765 0.283,0.907 l 3.147,8.589 h 2.154 l 0.142,-12.416 z"
           style="fill:#000000;fill-opacity:1;fill-rule:evenodd;stroke:none"
           id="path406" /><path
           d="m 275.386,698.343 c 0,-1.106 0.255,-1.928 0.708,-2.523 0.454,-0.596 1.106,-0.907 1.985,-0.907 0.68,0 1.219,0.141 1.644,0.425 0.397,0.283 0.68,0.623 0.822,1.049 l 1.389,-0.397 c -0.539,-1.503 -1.843,-2.24 -3.855,-2.268 -1.389,0.028 -2.466,0.425 -3.232,1.276 -0.737,0.822 -1.105,2.069 -1.134,3.741 -0.028,1.559 0.341,2.778 1.049,3.6 0.737,0.851 1.786,1.276 3.147,1.276 2.806,0 4.223,-1.701 4.252,-5.074 v -0.198 z m 5.131,1.19 c -0.086,1.021 -0.369,1.758 -0.794,2.211 -0.425,0.454 -1.021,0.68 -1.814,0.68 -0.766,0 -1.389,-0.255 -1.815,-0.765 -0.453,-0.51 -0.68,-1.219 -0.708,-2.126 z"
           style="fill:#000000;fill-opacity:1;fill-rule:evenodd;stroke:none"
           id="path408" /><path
           d="m 291.317,696.528 c 0,-0.878 -0.341,-1.587 -0.993,-2.069 -0.68,-0.482 -1.615,-0.709 -2.834,-0.737 -1.191,0.028 -2.126,0.198 -2.75,0.595 -0.652,0.397 -1.077,0.992 -1.275,1.843 l 1.389,0.255 c 0.141,-0.51 0.425,-0.879 0.85,-1.106 0.425,-0.255 1.02,-0.368 1.757,-0.368 0.794,0 1.389,0.113 1.758,0.368 0.368,0.256 0.538,0.624 0.538,1.106 0,0.368 -0.141,0.68 -0.396,0.907 -0.255,0.255 -0.681,0.454 -1.248,0.595 l -1.133,0.284 c -0.908,0.255 -1.56,0.482 -1.956,0.708 -0.369,0.227 -0.681,0.482 -0.907,0.823 -0.227,0.311 -0.341,0.708 -0.341,1.19 0,0.85 0.284,1.531 0.907,1.984 0.624,0.454 1.503,0.681 2.693,0.681 1.049,0 1.9,-0.199 2.523,-0.567 0.624,-0.369 1.021,-0.964 1.191,-1.786 l -1.418,-0.17 c -0.113,0.425 -0.34,0.765 -0.737,0.992 -0.368,0.227 -0.907,0.312 -1.53,0.312 -0.737,0 -1.248,-0.085 -1.588,-0.312 -0.34,-0.227 -0.51,-0.539 -0.51,-0.992 0.028,-0.255 0.085,-0.482 0.227,-0.652 0.142,-0.199 0.368,-0.34 0.623,-0.454 0.284,-0.113 0.879,-0.283 1.758,-0.51 0.85,-0.227 1.446,-0.397 1.814,-0.595 0.369,-0.17 0.652,-0.369 0.879,-0.595 0.227,-0.199 0.397,-0.454 0.51,-0.738 0.113,-0.283 0.17,-0.623 0.199,-0.992 z"
           style="fill:#000000;fill-opacity:1;fill-rule:evenodd;stroke:none"
           id="path410" /><path
           d="m 294.661,701.772 c 0.341,0.624 0.737,1.078 1.219,1.361 0.482,0.312 1.077,0.454 1.814,0.454 1.021,0 1.786,-0.255 2.268,-0.766 0.51,-0.538 0.766,-1.389 0.766,-2.579 l 0.085,-6.35 h -1.588 l -0.085,6.038 c 0,0.652 -0.057,1.162 -0.198,1.474 -0.114,0.34 -0.312,0.567 -0.596,0.709 -0.283,0.17 -0.68,0.226 -1.19,0.226 -0.737,0 -1.332,-0.255 -1.786,-0.765 -0.425,-0.51 -0.652,-1.191 -0.624,-2.069 l 0.057,-5.613 h -1.587 l -0.142,13.04 h 1.587 l 0.029,-3.402 c 0,-0.34 0,-0.709 -0.029,-1.106 0,-0.368 -0.028,-0.595 -0.028,-0.652 z"
           style="fill:#000000;fill-opacity:1;fill-rule:evenodd;stroke:none"
           id="path412" /><path
           d="m 212.457,700.128 c 0.028,-2.466 -1.418,-4.932 -4.167,-7.086 -2.778,-2.155 -6.747,-3.94 -11.566,-5.188 -4.818,-1.247 -10.289,-1.899 -15.845,-1.899 -5.585,0 -11.055,0.652 -15.903,1.899 -4.847,1.248 -8.872,3.033 -11.678,5.188 -2.807,2.154 -4.309,4.62 -4.337,7.086 -0.029,2.495 1.417,4.961 4.167,7.115 2.778,2.155 6.746,3.94 11.565,5.188 4.819,1.247 10.29,1.899 15.846,1.899 5.584,0 11.055,-0.652 15.902,-1.899 4.847,-1.248 8.872,-3.033 11.679,-5.188 2.806,-2.154 4.308,-4.62 4.337,-7.086 z"
           style="fill:#ff972f;fill-opacity:1;fill-rule:evenodd;stroke:none"
           id="path414" /><g
           id="g416"><path
             d="m 212.457,700.128 c 0.028,-2.466 -1.418,-4.932 -4.167,-7.086 -2.778,-2.155 -6.747,-3.94 -11.566,-5.188 -4.818,-1.247 -10.289,-1.899 -15.845,-1.899 -5.585,0 -11.055,0.652 -15.903,1.899 -4.847,1.248 -8.872,3.033 -11.678,5.188 -2.807,2.154 -4.309,4.62 -4.337,7.086 -0.029,2.495 1.417,4.961 4.167,7.115 2.778,2.155 6.746,3.94 11.565,5.188 4.819,1.247 10.29,1.899 15.846,1.899 5.584,0 11.055,-0.652 15.902,-1.899 4.847,-1.248 8.872,-3.033 11.679,-5.188 2.806,-2.154 4.308,-4.62 4.337,-7.086 z"
             style="fill:none;stroke:#3465a4;stroke-width:0.75;stroke-linecap:butt;stroke-linejoin:round;stroke-miterlimit:10;stroke-dasharray:none;stroke-opacity:1"
             id="path418" /></g><path
           d="m 170.816,693.892 -0.114,8.277 c 0,0.936 0,1.814 0.057,2.665 -0.283,-1.077 -0.539,-1.899 -0.737,-2.466 l -3.118,-8.476 h -1.162 l -3.345,8.476 -0.51,1.474 -0.312,0.992 0.056,-0.992 0.029,-1.673 0.113,-8.277 h -1.502 l -0.142,12.416 h 2.211 l 3.402,-8.589 c 0.113,-0.369 0.227,-0.737 0.34,-1.134 0.113,-0.397 0.198,-0.68 0.227,-0.85 0.056,0.226 0.141,0.595 0.283,1.077 0.142,0.482 0.227,0.765 0.284,0.907 l 3.146,8.589 h 2.154 l 0.142,-12.416 z"
           style="fill:#000000;fill-opacity:1;fill-rule:evenodd;stroke:none"
           id="path420" /><path
           d="m 176.173,698.343 c 0,-1.106 0.255,-1.928 0.709,-2.523 0.453,-0.596 1.105,-0.907 1.984,-0.907 0.68,0 1.219,0.141 1.644,0.425 0.397,0.283 0.681,0.623 0.822,1.049 l 1.389,-0.397 c -0.538,-1.503 -1.842,-2.24 -3.855,-2.268 -1.389,0.028 -2.466,0.425 -3.231,1.276 -0.737,0.822 -1.106,2.069 -1.134,3.741 -0.029,1.559 0.34,2.778 1.049,3.6 0.737,0.851 1.785,1.276 3.146,1.276 2.806,0 4.224,-1.701 4.252,-5.074 v -0.198 z m 5.131,1.19 c -0.085,1.021 -0.369,1.758 -0.794,2.211 -0.425,0.454 -1.02,0.68 -1.814,0.68 -0.765,0 -1.389,-0.255 -1.814,-0.765 -0.454,-0.51 -0.68,-1.219 -0.709,-2.126 z"
           style="fill:#000000;fill-opacity:1;fill-rule:evenodd;stroke:none"
           id="path422" /><path
           d="m 192.104,696.528 c 0,-0.878 -0.34,-1.587 -0.992,-2.069 -0.681,-0.482 -1.616,-0.709 -2.835,-0.737 -1.19,0.028 -2.126,0.198 -2.749,0.595 -0.652,0.397 -1.078,0.992 -1.276,1.843 l 1.389,0.255 c 0.142,-0.51 0.425,-0.879 0.85,-1.106 0.426,-0.255 1.021,-0.368 1.758,-0.368 0.794,0 1.389,0.113 1.757,0.368 0.369,0.256 0.539,0.624 0.539,1.106 0,0.368 -0.142,0.68 -0.397,0.907 -0.255,0.255 -0.68,0.454 -1.247,0.595 l -1.134,0.284 c -0.907,0.255 -1.559,0.482 -1.956,0.708 -0.368,0.227 -0.68,0.482 -0.907,0.823 -0.227,0.311 -0.34,0.708 -0.34,1.19 0,0.85 0.283,1.531 0.907,1.984 0.623,0.454 1.502,0.681 2.693,0.681 1.049,0 1.899,-0.199 2.523,-0.567 0.623,-0.369 1.02,-0.964 1.19,-1.786 l -1.417,-0.17 c -0.114,0.425 -0.34,0.765 -0.737,0.992 -0.369,0.227 -0.907,0.312 -1.531,0.312 -0.737,0 -1.247,-0.085 -1.587,-0.312 -0.34,-0.227 -0.511,-0.539 -0.511,-0.992 0.029,-0.255 0.086,-0.482 0.227,-0.652 0.142,-0.199 0.369,-0.34 0.624,-0.454 0.283,-0.113 0.879,-0.283 1.757,-0.51 0.851,-0.227 1.446,-0.397 1.815,-0.595 0.368,-0.17 0.652,-0.369 0.878,-0.595 0.227,-0.199 0.397,-0.454 0.511,-0.738 0.113,-0.283 0.17,-0.623 0.198,-0.992 z"
           style="fill:#000000;fill-opacity:1;fill-rule:evenodd;stroke:none"
           id="path424" /><path
           d="m 195.449,701.772 c 0.34,0.624 0.737,1.078 1.219,1.361 0.482,0.312 1.077,0.454 1.814,0.454 1.02,0 1.786,-0.255 2.268,-0.766 0.51,-0.538 0.765,-1.389 0.765,-2.579 l 0.085,-6.35 h -1.587 l -0.085,6.038 c 0,0.652 -0.057,1.162 -0.199,1.474 -0.113,0.34 -0.312,0.567 -0.595,0.709 -0.284,0.17 -0.68,0.226 -1.191,0.226 -0.737,0 -1.332,-0.255 -1.786,-0.765 -0.425,-0.51 -0.651,-1.191 -0.623,-2.069 l 0.057,-5.613 h -1.588 l -0.142,13.04 h 1.588 l 0.028,-3.402 c 0,-0.34 0,-0.709 -0.028,-1.106 0,-0.368 -0.029,-0.595 -0.029,-0.652 z"
           style="fill:#000000;fill-opacity:1;fill-rule:evenodd;stroke:none"
           id="path426" /><path
           d="m 417.969,700.128 c 0.028,-2.466 -1.418,-4.932 -4.167,-7.086 -2.778,-2.155 -6.747,-3.94 -11.566,-5.188 -4.819,-1.247 -10.29,-1.899 -15.845,-1.899 -5.585,0 -11.056,0.652 -15.903,1.899 -4.847,1.248 -8.872,3.033 -11.679,5.188 -2.806,2.154 -4.308,4.62 -4.337,7.086 -0.028,2.495 1.418,4.961 4.167,7.115 2.778,2.155 6.747,3.94 11.566,5.188 4.819,1.247 10.289,1.899 15.845,1.899 5.585,0 11.056,-0.652 15.903,-1.899 4.847,-1.248 8.872,-3.033 11.678,-5.188 2.807,-2.154 4.309,-4.62 4.338,-7.086 z"
           style="fill:#ff972f;fill-opacity:1;fill-rule:evenodd;stroke:none"
           id="path428" /><g
           id="g430"><path
             d="m 417.969,700.128 c 0.028,-2.466 -1.418,-4.932 -4.167,-7.086 -2.778,-2.155 -6.747,-3.94 -11.566,-5.188 -4.819,-1.247 -10.29,-1.899 -15.845,-1.899 -5.585,0 -11.056,0.652 -15.903,1.899 -4.847,1.248 -8.872,3.033 -11.679,5.188 -2.806,2.154 -4.308,4.62 -4.337,7.086 -0.028,2.495 1.418,4.961 4.167,7.115 2.778,2.155 6.747,3.94 11.566,5.188 4.819,1.247 10.289,1.899 15.845,1.899 5.585,0 11.056,-0.652 15.903,-1.899 4.847,-1.248 8.872,-3.033 11.678,-5.188 2.807,-2.154 4.309,-4.62 4.338,-7.086 z"
             style="fill:none;stroke:#3465a4;stroke-width:0.75;stroke-linecap:butt;stroke-linejoin:round;stroke-miterlimit:10;stroke-dasharray:none;stroke-opacity:1"
             id="path432" /></g><path
           d="m 376.328,693.892 -0.114,8.277 c 0,0.936 0,1.814 0.057,2.665 -0.284,-1.077 -0.539,-1.899 -0.737,-2.466 l -3.118,-8.476 h -1.162 l -3.345,8.476 -0.511,1.474 -0.311,0.992 0.056,-0.992 0.029,-1.673 0.113,-8.277 h -1.502 l -0.142,12.416 h 2.211 l 3.402,-8.589 c 0.113,-0.369 0.226,-0.737 0.34,-1.134 0.113,-0.397 0.198,-0.68 0.226,-0.85 0.057,0.226 0.142,0.595 0.284,1.077 0.142,0.482 0.227,0.765 0.283,0.907 l 3.147,8.589 h 2.154 l 0.142,-12.416 z"
           style="fill:#000000;fill-opacity:1;fill-rule:evenodd;stroke:none"
           id="path434" /><path
           d="m 381.685,698.343 c 0,-1.106 0.255,-1.928 0.709,-2.523 0.453,-0.596 1.105,-0.907 1.984,-0.907 0.68,0 1.219,0.141 1.644,0.425 0.397,0.283 0.68,0.623 0.822,1.049 l 1.389,-0.397 c -0.539,-1.503 -1.842,-2.24 -3.855,-2.268 -1.389,0.028 -2.466,0.425 -3.232,1.276 -0.737,0.822 -1.105,2.069 -1.133,3.741 -0.029,1.559 0.34,2.778 1.048,3.6 0.737,0.851 1.786,1.276 3.147,1.276 2.806,0 4.223,-1.701 4.252,-5.074 v -0.198 z m 5.131,1.19 c -0.085,1.021 -0.369,1.758 -0.794,2.211 -0.425,0.454 -1.02,0.68 -1.814,0.68 -0.765,0 -1.389,-0.255 -1.814,-0.765 -0.454,-0.51 -0.681,-1.219 -0.709,-2.126 z"
           style="fill:#000000;fill-opacity:1;fill-rule:evenodd;stroke:none"
           id="path436" /><path
           d="m 397.616,696.528 c 0,-0.878 -0.34,-1.587 -0.992,-2.069 -0.681,-0.482 -1.616,-0.709 -2.835,-0.737 -1.191,0.028 -2.126,0.198 -2.75,0.595 -0.652,0.397 -1.077,0.992 -1.275,1.843 l 1.389,0.255 c 0.141,-0.51 0.425,-0.879 0.85,-1.106 0.425,-0.255 1.021,-0.368 1.758,-0.368 0.793,0 1.389,0.113 1.757,0.368 0.369,0.256 0.539,0.624 0.539,1.106 0,0.368 -0.142,0.68 -0.397,0.907 -0.255,0.255 -0.68,0.454 -1.247,0.595 l -1.134,0.284 c -0.907,0.255 -1.559,0.482 -1.956,0.708 -0.369,0.227 -0.68,0.482 -0.907,0.823 -0.227,0.311 -0.34,0.708 -0.34,1.19 0,0.85 0.283,1.531 0.907,1.984 0.623,0.454 1.502,0.681 2.693,0.681 1.048,0 1.899,-0.199 2.522,-0.567 0.624,-0.369 1.021,-0.964 1.191,-1.786 l -1.417,-0.17 c -0.114,0.425 -0.341,0.765 -0.737,0.992 -0.369,0.227 -0.907,0.312 -1.531,0.312 -0.737,0 -1.247,-0.085 -1.587,-0.312 -0.341,-0.227 -0.511,-0.539 -0.511,-0.992 0.029,-0.255 0.085,-0.482 0.227,-0.652 0.142,-0.199 0.369,-0.34 0.624,-0.454 0.283,-0.113 0.878,-0.283 1.757,-0.51 0.851,-0.227 1.446,-0.397 1.814,-0.595 0.369,-0.17 0.652,-0.369 0.879,-0.595 0.227,-0.199 0.397,-0.454 0.51,-0.738 0.114,-0.283 0.17,-0.623 0.199,-0.992 z"
           style="fill:#000000;fill-opacity:1;fill-rule:evenodd;stroke:none"
           id="path438" /><path
           d="m 400.961,701.772 c 0.34,0.624 0.737,1.078 1.219,1.361 0.481,0.312 1.077,0.454 1.814,0.454 1.02,0 1.786,-0.255 2.267,-0.766 0.511,-0.538 0.766,-1.389 0.766,-2.579 l 0.085,-6.35 h -1.588 l -0.085,6.038 c 0,0.652 -0.056,1.162 -0.198,1.474 -0.113,0.34 -0.312,0.567 -0.595,0.709 -0.284,0.17 -0.681,0.226 -1.191,0.226 -0.737,0 -1.332,-0.255 -1.786,-0.765 -0.425,-0.51 -0.652,-1.191 -0.623,-2.069 l 0.056,-5.613 h -1.587 l -0.142,13.04 h 1.588 l 0.028,-3.402 c 0,-0.34 0,-0.709 -0.028,-1.106 0,-0.368 -0.029,-0.595 -0.029,-0.652 z"
           style="fill:#000000;fill-opacity:1;fill-rule:evenodd;stroke:none"
           id="path440" /><path
           d="m 205.37,437.924 c 0.028,-2.466 -1.417,-4.933 -4.167,-7.087 -2.778,-2.154 -6.746,-3.94 -11.565,-5.187 -4.819,-1.248 -10.29,-1.9 -15.846,-1.9 -5.584,0 -11.055,0.652 -15.902,1.9 -4.847,1.247 -8.873,3.033 -11.679,5.187 -2.806,2.154 -4.309,4.621 -4.337,7.087 -0.028,2.494 1.417,4.96 4.167,7.115 2.778,2.154 6.746,3.94 11.565,5.187 4.819,1.247 10.29,1.899 15.846,1.899 5.584,0 11.055,-0.652 15.902,-1.899 4.848,-1.247 8.873,-3.033 11.679,-5.187 2.806,-2.155 4.309,-4.621 4.337,-7.115 z"
           style="fill:#ff972f;fill-opacity:1;fill-rule:evenodd;stroke:none"
           id="path442" /><g
           id="g444"><path
             d="m 205.37,437.924 c 0.028,-2.466 -1.417,-4.933 -4.167,-7.087 -2.778,-2.154 -6.746,-3.94 -11.565,-5.187 -4.819,-1.248 -10.29,-1.9 -15.846,-1.9 -5.584,0 -11.055,0.652 -15.902,1.9 -4.847,1.247 -8.873,3.033 -11.679,5.187 -2.806,2.154 -4.309,4.621 -4.337,7.087 -0.028,2.494 1.417,4.96 4.167,7.115 2.778,2.154 6.746,3.94 11.565,5.187 4.819,1.247 10.29,1.899 15.846,1.899 5.584,0 11.055,-0.652 15.902,-1.899 4.848,-1.247 8.873,-3.033 11.679,-5.187 2.806,-2.155 4.309,-4.621 4.337,-7.115 z"
             style="fill:none;stroke:#3465a4;stroke-width:0.75;stroke-linecap:butt;stroke-linejoin:round;stroke-miterlimit:10;stroke-dasharray:none;stroke-opacity:1"
             id="path446" /></g><path
           d="m 163.729,431.687 -0.113,8.278 c 0,0.935 0,1.814 0.056,2.664 -0.283,-1.077 -0.538,-1.899 -0.737,-2.466 l -3.118,-8.476 h -1.162 l -3.345,8.476 -0.51,1.474 -0.312,0.992 0.057,-0.992 0.028,-1.672 0.114,-8.278 h -1.503 l -0.141,12.416 h 2.211 l 3.401,-8.589 c 0.114,-0.368 0.227,-0.737 0.34,-1.134 0.114,-0.397 0.199,-0.68 0.227,-0.85 0.057,0.227 0.142,0.595 0.284,1.077 0.141,0.482 0.226,0.765 0.283,0.907 l 3.146,8.589 h 2.155 l 0.141,-12.416 z"
           style="fill:#000000;fill-opacity:1;fill-rule:evenodd;stroke:none"
           id="path448" /><path
           d="m 169.087,436.138 c 0,-1.106 0.255,-1.928 0.708,-2.523 0.454,-0.595 1.106,-0.907 1.985,-0.907 0.68,0 1.218,0.142 1.644,0.425 0.396,0.284 0.68,0.624 0.822,1.049 l 1.389,-0.397 c -0.539,-1.502 -1.843,-2.239 -3.855,-2.268 -1.389,0.029 -2.467,0.426 -3.232,1.276 -0.737,0.822 -1.105,2.069 -1.134,3.742 -0.028,1.559 0.34,2.778 1.049,3.6 0.737,0.85 1.786,1.275 3.146,1.275 2.807,0 4.224,-1.701 4.252,-5.074 v -0.198 z m 5.13,1.19 c -0.085,1.021 -0.368,1.758 -0.793,2.211 -0.426,0.454 -1.021,0.681 -1.815,0.681 -0.765,0 -1.389,-0.255 -1.814,-0.766 -0.453,-0.51 -0.68,-1.219 -0.708,-2.126 z"
           style="fill:#000000;fill-opacity:1;fill-rule:evenodd;stroke:none"
           id="path450" /><path
           d="m 185.017,434.324 c 0,-0.879 -0.34,-1.588 -0.992,-2.07 -0.68,-0.482 -1.616,-0.708 -2.834,-0.737 -1.191,0.029 -2.126,0.199 -2.75,0.596 -0.652,0.396 -1.077,0.992 -1.276,1.842 l 1.389,0.255 c 0.142,-0.51 0.426,-0.878 0.851,-1.105 0.425,-0.255 1.02,-0.369 1.757,-0.369 0.794,0 1.389,0.114 1.758,0.369 0.368,0.255 0.538,0.623 0.538,1.105 0,0.369 -0.141,0.681 -0.397,0.907 -0.255,0.255 -0.68,0.454 -1.247,0.596 l -1.134,0.283 c -0.907,0.255 -1.559,0.482 -1.956,0.709 -0.368,0.227 -0.68,0.482 -0.907,0.822 -0.226,0.312 -0.34,0.708 -0.34,1.19 0,0.851 0.284,1.531 0.907,1.985 0.624,0.453 1.503,0.68 2.693,0.68 1.049,0 1.899,-0.199 2.523,-0.567 0.624,-0.369 1.02,-0.964 1.191,-1.786 l -1.418,-0.17 c -0.113,0.425 -0.34,0.765 -0.737,0.992 -0.368,0.227 -0.907,0.312 -1.53,0.312 -0.737,0 -1.248,-0.085 -1.588,-0.312 -0.34,-0.227 -0.51,-0.538 -0.51,-0.992 0.028,-0.255 0.085,-0.482 0.227,-0.652 0.141,-0.198 0.368,-0.34 0.623,-0.453 0.284,-0.114 0.879,-0.284 1.758,-0.511 0.85,-0.226 1.445,-0.397 1.814,-0.595 0.368,-0.17 0.652,-0.368 0.879,-0.595 0.226,-0.199 0.397,-0.454 0.51,-0.737 0.113,-0.284 0.17,-0.624 0.198,-0.992 z"
           style="fill:#000000;fill-opacity:1;fill-rule:evenodd;stroke:none"
           id="path452" /><path
           d="m 188.362,439.568 c 0.34,0.623 0.737,1.077 1.219,1.36 0.482,0.312 1.077,0.454 1.814,0.454 1.021,0 1.786,-0.255 2.268,-0.765 0.51,-0.539 0.765,-1.389 0.765,-2.58 l 0.085,-6.35 h -1.587 l -0.085,6.038 c 0,0.652 -0.057,1.162 -0.198,1.474 -0.114,0.34 -0.312,0.567 -0.596,0.709 -0.283,0.17 -0.68,0.227 -1.19,0.227 -0.737,0 -1.333,-0.255 -1.786,-0.766 -0.425,-0.51 -0.652,-1.19 -0.624,-2.069 l 0.057,-5.613 h -1.587 l -0.142,13.04 h 1.587 l 0.029,-3.402 c 0,-0.34 0,-0.708 -0.029,-1.105 0,-0.369 -0.028,-0.596 -0.028,-0.652 z"
           style="fill:#000000;fill-opacity:1;fill-rule:evenodd;stroke:none"
           id="path454" /><path
           d="m 248.145,714.358 -14.202,7.002 7.087,0.028 -0.057,21.345 -7.086,-0.028 14.144,7.143 14.23,-7.03 -7.115,-0.028 0.057,-21.345 7.115,0.028 z"
           style="fill:#ea7500;fill-opacity:1;fill-rule:evenodd;stroke:none"
           id="path456" /><g
           id="g458"><path
             d="m 248.145,714.358 -14.202,7.002 7.087,0.028 -0.057,21.345 -7.086,-0.028 14.144,7.143 14.23,-7.03 -7.115,-0.028 0.057,-21.345 7.115,0.028 z"
             style="fill:none;stroke:#3465a4;stroke-width:0.75;stroke-linecap:butt;stroke-linejoin:round;stroke-miterlimit:10;stroke-dasharray:none;stroke-opacity:1"
             id="path460" /></g><path
           d="m 354.331,714.358 -14.202,7.002 7.087,0.028 -0.057,21.345 -7.087,-0.028 14.145,7.143 14.23,-7.03 -7.115,-0.028 0.057,-21.345 7.115,0.028 z"
           style="fill:#ea7500;fill-opacity:1;fill-rule:evenodd;stroke:none"
           id="path462" /><g
           id="g464"><path
             d="m 354.331,714.358 -14.202,7.002 7.087,0.028 -0.057,21.345 -7.087,-0.028 14.145,7.143 14.23,-7.03 -7.115,-0.028 0.057,-21.345 7.115,0.028 z"
             style="fill:none;stroke:#3465a4;stroke-width:0.75;stroke-linecap:butt;stroke-linejoin:round;stroke-miterlimit:10;stroke-dasharray:none;stroke-opacity:1"
             id="path466" /></g></g></g></g></svg>
